<?xml version="1.0" encoding="utf-8"?>
<!-- Generator: Adobe Illustrator 28.2.0, SVG Export Plug-In . SVG Version: 6.00 Build 0)  -->
<svg version="1.1" id="Capa_1" xmlns="http://www.w3.org/2000/svg" xmlns:xlink="http://www.w3.org/1999/xlink" x="0px" y="0px"
	 viewBox="0 0 2068 2048" style="enable-background:new 0 0 2068 2048;" xml:space="preserve">
<style type="text/css">
	.st0{fill:#555555;}
	.st1{fill:#0078D4;}
</style>
<path class="st0" d="M1085.4,835.1c-13.9,0-26-6.3-36.2-19s-15.3-27.7-15.3-45s5.1-32.3,15.3-45c10.2-12.7,22.3-19,36.2-19h926.1
	c13.9,0,26,6.3,36.2,19s15.3,27.7,15.3,45s-5.1,32.3-15.3,45s-22.3,19-36.2,19H1085.4z"/>
<path class="st1" d="M304.6,1307.6c-17.3,0-32.3-6.3-45-19c-12.7-12.7-19-27.7-19-45s6.3-32.3,19-45l210-211l-210-211
	c-12.7-12.7-19-27.7-19-45s6.3-32.3,19-45c12.7-12.7,27.7-19,45-19s32.3,6.3,45,19l256,256c12.7,12.7,19,27.7,19,45s-6.3,32.3-19,45
	l-256,256C336.9,1301.3,321.9,1307.6,304.6,1307.6z"/>
<path class="st0" d="M747.7,1353.3c-18.7,0-34.9-6.3-48.7-19c-13.7-12.7-20.6-27.7-20.6-45s6.8-32.3,20.6-45
	c13.7-12.7,30-19,48.7-19h1246.1c18.7,0,34.9,6.3,48.7,19c13.7,12.7,20.6,27.7,20.6,45s-6.8,32.3-20.6,45c-13.7,12.7-30,19-48.7,19
	H747.7z"/>
<path class="st0" d="M541.1,1859.1c-21.7,0-40.4-6.3-56.3-19s-23.8-27.7-23.8-45s7.9-32.3,23.8-45s34.7-19,56.3-19h1441.8
	c21.7,0,40.4,6.3,56.3,19s23.8,27.7,23.8,45s-7.9,32.3-23.8,45s-34.7,19-56.3,19H541.1z"/>
<path class="st0" d="M513.7,316.9c-21.9,0-40.9-6.3-57-19s-24.1-27.7-24.1-45s8-32.3,24.1-45s35.1-19,57-19H1972
	c21.9,0,40.9,6.3,57,19s24.1,27.7,24.1,45c0,17.3-8,32.3-24.1,45s-35.1,19-57,19H513.7z"/>
</svg>
