<?xml version="1.0" encoding="utf-8"?>
<!-- Generator: Adobe Illustrator 26.3.1, SVG Export Plug-In . SVG Version: 6.00 Build 0)  -->
<svg version="1.1" id="Capa_1" xmlns="http://www.w3.org/2000/svg" xmlns:xlink="http://www.w3.org/1999/xlink" x="0px" y="0px"
	 viewBox="0 0 128 128" style="enable-background:new 0 0 128 128;" xml:space="preserve">
<style type="text/css">
	.st0{fill:#B0B0AF;}
	.st1{fill:#EAE9E9;}
	.st2{fill:#49B7ED;}
</style>
<g>
	<path class="st0" d="M66.4,121.2c19.6,0,39.2,0,58.8,0c2.9,0,2.8,0,2.9-2.9c0.1-1.4-0.4-1.7-1.7-1.7c-39.7,0-79.3,0-119,0
		c-2.8,0-2.7,0-2.8,2.9c-0.1,1.5,0.4,1.8,1.8,1.8C26.4,121.2,46.4,121.2,66.4,121.2z M66.3,6.8c-19.6,0-39.3,0-58.9,0
		c-2.7,0-2.7,0-2.7,2.8c0,1.8,0,1.8,1.8,1.8c39.6,0,79.1,0,118.7,0c2.9,0,2.8,0,2.9-2.9c0.1-1.4-0.4-1.7-1.7-1.7
		C106.3,6.8,86.3,6.8,66.3,6.8z M33.4,66.7c-0.1,0.1-0.1,0.3-0.2,0.3c-4.3,4.2-8.5,8.4-12.8,12.6c-2.1,2-2,2-0.1,4.1
		c0.9,1,1.4,0.9,2.3,0c3.1-3,6.3-6,9.3-9.1c3.1-3.2,6.5-6.1,9.6-9.4c0.8-0.8,0.8-1.3,0.2-2.1C40,61,37.9,59.2,36,57.4
		C31.7,53.3,27.7,49,23.4,45c-1.8-1.7-1.7-1.8-3.5-0.1c-0.2,0.2-0.5,0.5-0.8,0.6c-0.7,0.4-0.7,0.9-0.2,1.5c1,1.1,2,2.3,3.1,3.3
		c3.1,3,6.2,6.1,9.3,9.2c0.5,0.5,1.8,0.9,1.5,1.6c-0.3,0.9-1.5,0.5-2.3,0.5c-9.2,0-18.5,0-27.7,0c-3.3,0-2.8-0.6-2.9,2.9
		c0,1.5,0.5,1.8,1.9,1.8c10,0,19.9,0,29.9,0.1C32.3,66.5,32.9,66.4,33.4,66.7z M89.1,38.9c12,0,24.1,0,36.1,0c2.7,0,2.7,0,2.7-2.8
		c0-1.9,0-1.9-1.9-1.9c-24.3,0-48.6,0-72.8,0c-3,0-2.9,0-3,3c-0.1,1.4,0.5,1.7,1.8,1.7C64.4,38.9,76.7,38.9,89.1,38.9z M89,25.2
		c12.1,0,24.2,0,36.3,0c2.8,0,2.8,0,2.8-2.8c0-1.9,0-1.9-1.9-1.9c-24.3,0-48.5,0-72.8,0c-3,0-2.9,0-3,3c-0.1,1.4,0.5,1.7,1.8,1.7
		C64.3,25.1,76.7,25.2,89,25.2z M89.3,52.6c12,0,24,0,36,0c2.7,0,2.6,0,2.7-2.8c0.1-1.4-0.3-1.8-1.8-1.8c-24.4,0.1-48.8,0-73.1,0
		c-2.9,0-2.8,0-2.9,2.9c0,1.3,0.3,1.7,1.7,1.7C64.3,52.6,76.8,52.6,89.3,52.6z M89.3,61.7c-12,0-24.1,0-36.1,0c-2.9,0-2.8,0-2.9,3
		c0,1.4,0.4,1.7,1.7,1.7c24.3,0,48.7,0,73,0c3,0,3,0,3-3.1c0-1.3-0.3-1.6-1.6-1.6C114,61.7,101.7,61.7,89.3,61.7z M89.1,75.4
		c-12.1,0-24.1,0-36.2,0c-2.8,0-2.8,0-2.7,2.8c0,1.9,0,1.9,1.9,1.9c24.3,0,48.7,0,73,0c2.9,0,2.8,0,2.9-2.9c0-1.4-0.4-1.8-1.7-1.7
		C113.9,75.5,101.5,75.4,89.1,75.4z M89.1,89.2c-12,0-24,0-36,0c-2.9,0-2.9,0-2.9,2.8c0,1.8,0,1.8,1.9,1.8c24.3,0,48.6,0,72.9,0
		c3,0,2.9,0,3-3c0.1-1.4-0.4-1.7-1.8-1.7C113.9,89.2,101.5,89.2,89.1,89.2z M89,107.5c12.1,0,24.1,0,36.2,0c2.8,0,2.8,0,2.8-2.8
		c0-1.8,0-1.8-1.9-1.8c-24.3,0-48.6,0-72.9,0c-3,0-2.9,0-3,3c0,1.3,0.3,1.7,1.6,1.7C64.2,107.5,76.6,107.5,89,107.5z"/>
	<path class="st1" d="M66.4,121.2c-20,0-40,0-60,0c-1.4,0-1.9-0.3-1.8-1.8c0.1-2.8,0-2.9,2.8-2.9c39.7,0,79.3,0,119,0
		c1.4,0,1.8,0.3,1.7,1.7c-0.1,2.9,0,2.9-2.9,2.9C105.6,121.2,86,121.2,66.4,121.2z"/>
	<path class="st1" d="M66.3,6.8c20,0,40,0,60.1,0c1.4,0,1.8,0.3,1.7,1.7c-0.1,2.9,0,2.9-2.9,2.9c-39.6,0-79.1,0-118.7,0
		c-1.8,0-1.8,0-1.8-1.8c0-2.8,0-2.8,2.7-2.8C27,6.8,46.6,6.8,66.3,6.8z"/>
	<path class="st2" d="M33.4,66.7c-0.5-0.4-1.1-0.3-1.7-0.3c-10,0-19.9-0.1-29.9-0.1c-1.4,0-1.9-0.2-1.9-1.8c0.1-3.6-0.4-2.9,2.9-2.9
		c9.2,0,18.5,0,27.7,0c0.8,0,2,0.4,2.3-0.5c0.3-0.8-1-1.1-1.5-1.6c-3.1-3.1-6.1-6.2-9.3-9.2c-1-1.1-2-2.2-3.1-3.3
		c-0.5-0.6-0.5-1.1,0.2-1.5c0.3-0.2,0.5-0.4,0.8-0.6c1.8-1.6,1.7-1.6,3.5,0.1c4.3,4,8.2,8.4,12.5,12.4c1.9,1.9,4,3.6,5.7,5.7
		c0.7,0.8,0.6,1.3-0.2,2.1c-3,3.3-6.5,6.2-9.6,9.4c-3,3.1-6.1,6.1-9.3,9.1c-0.9,0.9-1.4,1-2.3,0c-1.9-2.1-1.9-2.1,0.1-4.1
		c4.3-4.2,8.5-8.4,12.8-12.6C33.3,67,33.3,66.9,33.4,66.7z"/>
	<path class="st1" d="M89.1,38.9c-12.4,0-24.8,0-37.1,0c-1.3,0-1.8-0.3-1.8-1.7c0.1-3,0-3,3-3c24.3,0,48.6,0,72.8,0
		c1.9,0,1.9,0,1.9,1.9c0,2.8,0,2.8-2.7,2.8C113.2,38.9,101.2,38.9,89.1,38.9z"/>
	<path class="st1" d="M89,25.2c-12.3,0-24.7,0-37,0c-1.3,0-1.8-0.3-1.8-1.7c0.1-3,0-3,3-3c24.3,0,48.5,0,72.8,0c1.9,0,1.9,0,1.9,1.9
		c0,2.8,0,2.8-2.8,2.8C113.2,25.2,101.1,25.2,89,25.2z"/>
	<path class="st1" d="M89.3,52.6c-12.5,0-24.9,0-37.4,0c-1.3,0-1.7-0.4-1.7-1.7c0.1-2.9,0-2.9,2.9-2.9c24.4,0,48.8,0,73.1,0
		c1.5,0,1.8,0.4,1.8,1.8c-0.1,2.8,0,2.8-2.7,2.8C113.3,52.6,101.3,52.6,89.3,52.6z"/>
	<path class="st1" d="M89.3,61.7c12.4,0,24.8,0,37.1,0c1.2,0,1.6,0.3,1.6,1.6c-0.1,3.1,0,3.1-3,3.1c-24.3,0-48.7,0-73,0
		c-1.3,0-1.8-0.3-1.7-1.7c0.1-3,0-3,2.9-3C65.2,61.7,77.2,61.7,89.3,61.7z"/>
	<path class="st1" d="M89.1,75.4c12.4,0,24.8,0,37.1,0c1.4,0,1.8,0.4,1.7,1.7c-0.1,2.9,0,2.9-2.9,2.9c-24.3,0-48.7,0-73,0
		c-1.8,0-1.8,0-1.9-1.9c0-2.8,0-2.8,2.7-2.8C65,75.4,77.1,75.4,89.1,75.4z"/>
	<path class="st1" d="M89.1,89.2c12.4,0,24.8,0,37.1,0c1.3,0,1.8,0.3,1.8,1.7c-0.1,3,0,3-3,3c-24.3,0-48.6,0-72.9,0
		c-1.9,0-1.9,0-1.9-1.8c0-2.8,0-2.8,2.9-2.8C65.1,89.2,77.1,89.2,89.1,89.2z"/>
	<path class="st1" d="M89,107.5c-12.4,0-24.8,0-37.2,0c-1.3,0-1.7-0.4-1.6-1.7c0.1-3,0-3,3-3c24.3,0,48.6,0,72.9,0
		c1.9,0,1.9,0,1.9,1.8c0,2.8,0,2.8-2.8,2.8C113.1,107.5,101.1,107.5,89,107.5z"/>
</g>
</svg>
