<?xml version="1.0" encoding="utf-8"?>
<!-- Generator: Adobe Illustrator 26.3.1, SVG Export Plug-In . SVG Version: 6.00 Build 0)  -->
<svg version="1.1" id="Capa_1" xmlns="http://www.w3.org/2000/svg" xmlns:xlink="http://www.w3.org/1999/xlink" x="0px" y="0px"
	 viewBox="0 0 128 128" style="enable-background:new 0 0 128 128;" xml:space="preserve">
<style type="text/css">
	.st0{fill:#F48C77;}
	.st1{fill:#49B7ED;}
	.st2{fill:#F8B7B7;}
	.st3{fill:#90CAEE;}
	.st4{fill:#A2809F;}
	.st5{fill:#C2B3B3;}
	.st6{fill:#BAB2B2;}
	.st7{fill:#C1B2B2;}
	.st8{fill:#B5B1B1;}
	.st9{fill:#B4B1B1;}
	.st10{fill:#CEB4B4;}
	.st11{fill:#B9B2B2;}
	.st12{fill:#A1B0B0;}
	.st13{fill:#A6B0B0;}
	.st14{fill:#B6B1B1;}
	.st15{fill:#ADB1B1;}
	.st16{fill:#A3B0B0;}
	.st17{fill:#A8B0B0;}
	.st18{fill:#A0B0B0;}
	.st19{fill:#A2B0B0;}
	.st20{fill:#E2B6B6;}
	.st21{fill:#AAB0B0;}
	.st22{fill:#B2B1B1;}
	.st23{fill:#A4B0B0;}
	.st24{fill:#BEB2B2;}
	.st25{fill:#AEB1B1;}
	.st26{fill:#BCB2B2;}
	.st27{fill:#B0B1B1;}
	.st28{fill:#9FAFAF;}
	.st29{fill:#C8B3B3;}
	.st30{fill:#C9B3B3;}
	.st31{fill:#A9B0B0;}
	.st32{fill:#B7B2B2;}
	.st33{fill:#B4B2B2;}
	.st34{fill:#B7B1B1;}
	.st35{fill:#AFB1B1;}
	.st36{fill:#B8B2B2;}
	.st37{fill:#CEB3B3;}
	.st38{fill:#DAB5B5;}
	.st39{fill:#C1B3B3;}
	.st40{fill:#BFB2B2;}
	.st41{fill:#BBB2B2;}
</style>
<g>
	<path class="st0" d="M42.1,42.3c0.3-0.3,0.5-0.7,0.8-1C54.7,29.5,66.5,17.8,78.2,5.9c3.5-3.5,8.2-3.7,12-0.4
		c2.7,2.4,5.2,5.1,7.7,7.6c7.8,7.8,15.6,15.6,23.3,23.5c0.7,0.7,1.3,1.4,1.8,2.1c2.5,3.5,2.5,6.7-0.1,10.1c-1.1,1.4-2.4,2.7-3.6,3.9
		C109.2,63,99,73.2,88.7,83.4c-0.9,0.9-1.5,2.1-2.8,2.5c-0.5,0-0.9-0.2-1.1-0.6c-0.5-0.8-1.4-1.4-1.9-2.2c0-0.6,0.5-1,0.8-1.4
		c6.4-6.2,12.5-12.8,18.8-19.1c5.1-5.1,10.2-10.2,15.4-15.3c0.4-0.4,0.9-0.8,1.2-1.3c1.5-2,1.4-3.5-0.4-5.2
		c-10.2-10.2-20.3-20.4-30.5-30.5c-0.5-0.5-1.2-1-1.7-1.5c-1.4-1.2-2.4-1.2-4-0.3C81.7,9,81,9.6,80.3,10.3
		C73.9,16.7,67.4,23,61.1,29.6c-3.7,3.8-7.5,7.6-11.2,11.4c-1.1,1.2-2.6,2.1-3.5,3.5c-0.4,0.5-1,0.8-1.7,0.5
		C43.8,44.1,42.7,43.4,42.1,42.3z"/>
	<path class="st1" d="M42.1,42.3c1,0.6,1.9,1.5,2.7,2.5c0.1,0.1,0.1,0.2,0.1,0.3c0.1,0.6-0.3,1.1-0.8,1.4c-1.6,1-2.7,2.6-4,3.9
		c-3.1,3-6.2,6.1-9.2,9.2c-3.3,3.4-6.7,6.7-10,10.1c-2.5,2.6-5.1,5.2-7.8,7.7c-1.7,1.6-3.2,3.4-4.8,5.1c-1.3,1.4-1.1,3.2,0.4,4.8
		c1.8,1.8,3.5,3.7,5.3,5.5c8.4,8.5,17,17,25.5,25.5c0.5,0.5,0.9,0.9,1.4,1.3c1.6,1.1,3.1,1.2,4.8,0.2c0.8-0.5,1.5-1,2.1-1.7
		c3.1-3,5.9-6.1,8.9-9.1c7.1-7.2,14.3-14.3,21.4-21.4c0.8-0.8,1.7-1.7,2.7-2.4c0.3-0.2,0.5-0.5,0.6-0.8c0.4-0.5,0.7-1.1,1.4-1.3
		c0.1,0,0.2,0,0.3,0.1c1.2,0.7,1.8,2,2.8,2.8c-10.4,10.4-20.7,20.8-31.1,31.2c-1.8,1.8-3.6,3.5-5.4,5.3c-3,2.9-8.2,3.7-11.8,0
		c-6.4-6.4-12.8-12.7-19.2-19.1c-3.9-3.9-7.8-7.8-11.6-11.7c-0.7-0.8-1.5-1.5-2.1-2.4C2.3,86,2.5,81.9,5.3,79
		c2.9-3.1,6.3-5.8,9.1-8.9c2.9-3.2,6.2-6,9-9.4c1.1-1.4,2.8-2.4,4-3.7c3.6-3.7,7.2-7.4,10.8-11C39.5,44.7,40.6,43.2,42.1,42.3z"/>
	<path class="st2" d="M83.1,83c-0.1,0-0.2,0.1-0.3,0.1c-0.7-0.2-1.1-0.8-1.6-1.3c-1.8-1.6-3.2-3.6-5.3-4.9c-0.7-0.4-0.7-1.4-1.3-1.9
		c-2-1.9-4-3.8-6.1-5.6c-0.4-0.3-0.7-0.6-1-1c-2-2.9-4.6-5.1-7.3-7.2c-0.3-0.2-0.7-0.4-0.8-0.8c-0.2-1.2-1.2-1.8-2-2.6
		c-1.9-1.7-3.7-3.7-5.8-5.2c-0.7-0.5-0.8-1.5-1.4-2.1c-1.3-1.2-2.5-2.6-3.9-3.7c-0.7-0.5-1.3-1.1-1.6-1.9c0-0.1,0-0.2,0-0.3
		c0.7,0.3,1.4-0.1,1.6-0.6c0.5-1.2,1.6-1.7,2.4-2.6c3.5-3.5,7-7.1,10.6-10.6c7.1-7.2,14.2-14.3,21.4-21.5c0.4-0.4,0.8-0.7,1.3-1.1
		c2-1.4,3.2-1.4,5.1,0.2c1,0.9,2,1.8,3,2.8c9.6,9.6,19.2,19.2,28.8,28.8c2.2,2.2,2.3,4.1,0.1,6.5c-2.2,2.4-4.6,4.8-7,7.1
		c-9.6,9.3-18.8,19-28.3,28.4C83.4,82.6,83.3,82.8,83.1,83z"/>
	<path class="st3" d="M44.8,45c2,1.9,4.3,3.6,6,5.7c2.1,2.7,4.9,4.6,7.2,7.1c0.7,0.8,1.7,1.2,1.8,2.4c0,0.6,1,0.7,1.5,1.1
		c2.3,2.4,4.9,4.4,6.9,7.1c1.2,1.6,3.1,3,4.7,4.4c1,0.9,2.2,1.7,2.7,3.1c0.3,0.7,1,0.9,1.5,1.3c2,1.9,4.1,3.7,5.8,5.9
		c-0.6,0.3-0.7,0.9-1.2,1.3c-0.3,0.2-0.3,0.6-0.5,0.8C70.2,95.5,59.8,106.3,49.3,117c-1.1,1.1-2.2,2.4-3.6,3.2
		c-1.7,0.9-3.3,0.8-4.9-0.4c-0.4-0.3-0.8-0.7-1.2-1.1c-8.7-8.7-17.5-17.5-26.2-26.2c-1.7-1.7-3.3-3.3-4.9-5.1
		c-1.9-2.1-1.8-3.9,0.2-6c4-4,8-7.9,12-12c5.2-5.3,10.5-10.4,15.6-15.8c2-2.1,4.3-3.9,6.1-6.2C43,46.5,44.3,46.2,44.8,45z"/>
	<path class="st4" d="M81,85.2c-0.1-0.4,0.1-0.7,0.5-0.8C81.5,84.7,81.5,85.1,81,85.2z"/>
	<path class="st5" d="M77.1,42.2c0,0.2-0.2,0.4-0.4,0.4c-0.3,0-0.5-0.2-0.4-0.5c0-0.2,0.2-0.4,0.5-0.3C76.9,41.8,77.1,42,77.1,42.2z
		"/>
	<path class="st6" d="M75,39.2c0,0.2-0.2,0.4-0.4,0.4c-0.3,0-0.5-0.2-0.4-0.5c0-0.2,0.2-0.4,0.5-0.3C74.9,38.8,75,38.9,75,39.2z"/>
	<path class="st7" d="M100.9,39.6c-0.2,0-0.4-0.2-0.4-0.4c0-0.3,0.2-0.5,0.5-0.4c0.2,0,0.4,0.2,0.3,0.4
		C101.3,39.4,101.2,39.6,100.9,39.6z"/>
	<path class="st7" d="M94.9,35.7c0.2,0.1,0.4,0.2,0.4,0.4c0,0.3-0.1,0.4-0.4,0.4c-0.2,0-0.4-0.2-0.4-0.4
		C94.6,35.9,94.6,35.7,94.9,35.7z"/>
	<path class="st8" d="M80,35.2c0,0-0.1,0.2-0.3,0.2c-0.2,0-0.4-0.2-0.3-0.4c0-0.1,0.2-0.3,0.3-0.3C79.9,34.6,80,34.8,80,35.2z"/>
	<path class="st9" d="M89.8,30.6c0.2,0.1,0.3,0.2,0.3,0.5c0,0.2-0.2,0.4-0.4,0.3c-0.2,0-0.3-0.2-0.3-0.4
		C89.5,30.8,89.6,30.7,89.8,30.6z"/>
	<path class="st10" d="M53.6,50.3c0,0.2-0.1,0.3-0.3,0.3c-0.2,0-0.4-0.2-0.3-0.4c0-0.2,0.2-0.3,0.4-0.2C53.5,50,53.6,50.1,53.6,50.3
		z"/>
	<path class="st11" d="M73.6,31.4c-0.2,0-0.3-0.1-0.3-0.3c0-0.2,0.2-0.4,0.4-0.4c0.2,0,0.3,0.1,0.3,0.3C74,31.3,73.8,31.4,73.6,31.4
		z"/>
	<path class="st12" d="M79.6,39.5c-0.2,0-0.3-0.2-0.3-0.3c0-0.2,0.1-0.4,0.4-0.4c0.2,0,0.3,0.1,0.3,0.3C80,39.3,79.8,39.4,79.6,39.5
		z"/>
	<path class="st13" d="M81.6,23.2c-0.1-0.1-0.2-0.2-0.3-0.3c-0.1-0.2,0-0.3,0.3-0.3c0.2,0,0.3,0.1,0.3,0.3
		C82,23,81.9,23.2,81.6,23.2z"/>
	<path class="st14" d="M98.3,34.1c-0.1,0.1-0.2,0.2-0.3,0.2c-0.2,0-0.4-0.2-0.3-0.4c0-0.2,0.2-0.3,0.4-0.3
		C98.2,33.7,98.3,33.9,98.3,34.1z"/>
	<path class="st15" d="M99.3,42.1c0,0.3-0.1,0.4-0.3,0.4c-0.2,0-0.4-0.1-0.4-0.4c0-0.1,0.2-0.3,0.3-0.3C99.1,41.9,99.3,42,99.3,42.1
		z"/>
	<path class="st16" d="M87.8,37.8c0.2,0,0.3,0.2,0.3,0.3c0,0.2-0.1,0.3-0.3,0.4c-0.2,0-0.4-0.1-0.4-0.4
		C87.5,37.9,87.6,37.8,87.8,37.8z"/>
	<path class="st17" d="M90.9,40.4c-0.2,0-0.4,0-0.3-0.3c0-0.1,0.2-0.3,0.3-0.3c0.2-0.1,0.3,0,0.3,0.3C91.2,40.2,91.1,40.4,90.9,40.4
		z"/>
	<path class="st18" d="M83.7,28.7c0.2,0,0.3,0.1,0.3,0.3c0,0.2-0.1,0.4-0.3,0.3c-0.1,0-0.3-0.2-0.3-0.3
		C83.4,28.8,83.5,28.7,83.7,28.7z"/>
	<path class="st13" d="M84.7,39.8c0.2,0,0.3,0.2,0.3,0.3c0,0.2-0.1,0.3-0.3,0.4c-0.2,0-0.4-0.1-0.4-0.4
		C84.4,39.9,84.5,39.8,84.7,39.8z"/>
	<path class="st19" d="M78.6,29.7c0.2,0,0.3,0.1,0.3,0.3c0,0.2-0.1,0.3-0.3,0.3c-0.1,0-0.3-0.2-0.3-0.3
		C78.3,29.8,78.4,29.7,78.6,29.7z"/>
	<path class="st16" d="M86.7,30.8c0.2,0,0.3,0.1,0.3,0.3c0,0.2,0,0.4-0.2,0.3c-0.1,0-0.3-0.2-0.3-0.3C86.4,30.9,86.5,30.8,86.7,30.8
		z"/>
	<path class="st12" d="M85.1,36.2c0,0.2-0.2,0.3-0.3,0.2c-0.1,0-0.3-0.2-0.3-0.3c0-0.2,0.2-0.3,0.3-0.2C85,35.9,85,36,85.1,36.2z"/>
	<path class="st16" d="M76.5,33.4c-0.1-0.1-0.2-0.2-0.3-0.3c-0.1-0.2,0.1-0.3,0.3-0.3c0.2,0,0.3,0.1,0.3,0.3
		C76.9,33.2,76.8,33.4,76.5,33.4z"/>
	<path class="st12" d="M82.7,32.8c0.2,0,0.3,0.1,0.3,0.3c0,0.2-0.1,0.3-0.3,0.3c-0.1,0-0.3-0.2-0.3-0.3
		C82.3,32.9,82.5,32.8,82.7,32.8z"/>
	<path class="st20" d="M92.2,58.4c0,0.2-0.1,0.3-0.3,0.3c-0.2,0-0.4,0-0.3-0.2c0-0.1,0.2-0.3,0.3-0.3C92,58.1,92.2,58.2,92.2,58.4z"
		/>
	<path class="st12" d="M88.8,26.7c0.2,0,0.3,0.1,0.3,0.3c0,0.2-0.2,0.3-0.3,0.2c-0.1,0-0.2-0.2-0.2-0.3
		C88.5,26.8,88.6,26.7,88.8,26.7z"/>
	<path class="st21" d="M75.6,27.7c0.2,0,0.3,0.1,0.3,0.3c0,0.1-0.1,0.2-0.2,0.3c-0.2,0.1-0.3,0-0.4-0.2
		C75.3,27.9,75.4,27.8,75.6,27.7z"/>
	<path class="st21" d="M96,31.3c-0.2,0-0.3-0.1-0.3-0.3c0-0.2,0.1-0.3,0.3-0.3c0.1,0,0.2,0.1,0.3,0.2C96.3,31.1,96.2,31.3,96,31.3z"
		/>
	<path class="st22" d="M69.9,32c0,0.2-0.1,0.3-0.3,0.3c-0.2,0-0.3-0.1-0.3-0.3c0-0.1,0.1-0.2,0.2-0.3C69.7,31.7,69.8,31.8,69.9,32z"
		/>
	<path class="st15" d="M91.8,33.8c0.2,0,0.3,0.1,0.3,0.3c0,0.2-0.1,0.3-0.3,0.3c-0.1,0-0.2-0.1-0.2-0.2C91.5,34,91.6,33.8,91.8,33.8
		z"/>
	<path class="st14" d="M67.5,35.9c0.2,0,0.3,0,0.3,0.2c0,0.2-0.1,0.3-0.3,0.3c-0.1,0-0.2-0.1-0.3-0.2C67.2,36,67.3,35.9,67.5,35.9z"
		/>
	<path class="st13" d="M70.6,38.5c-0.2,0-0.3-0.2-0.3-0.4c0-0.2,0.2-0.3,0.4-0.2c0.1,0,0.2,0.2,0.2,0.3
		C70.9,38.4,70.8,38.5,70.6,38.5z"/>
	<path class="st23" d="M63.4,39.8c0.2,0,0.3,0.1,0.3,0.3c0,0.2-0.1,0.3-0.3,0.3c-0.1,0-0.2-0.1-0.3-0.2C63.2,40,63.3,39.9,63.4,39.8
		z"/>
	<path class="st24" d="M72,42.2c0,0.2-0.2,0.3-0.4,0.2c-0.1,0-0.2-0.1-0.2-0.2c0-0.2,0.1-0.3,0.3-0.3C71.8,41.9,71.9,42,72,42.2z"/>
	<path class="st25" d="M76.8,50.6c-0.2,0-0.3-0.1-0.3-0.3c0-0.1,0.1-0.2,0.2-0.3c0.2-0.1,0.3,0,0.4,0.2C77,50.4,76.9,50.5,76.8,50.6
		z"/>
	<path class="st26" d="M87.7,50.1c0.2,0,0.3,0.1,0.3,0.3c0,0.2-0.1,0.3-0.3,0.3c-0.1,0-0.2-0.1-0.3-0.2
		C87.4,50.2,87.5,50.1,87.7,50.1z"/>
	<path class="st27" d="M68.8,57.4c0,0.2-0.2,0.3-0.3,0.3c-0.2,0-0.3-0.2-0.2-0.3c0-0.1,0.1-0.2,0.2-0.2
		C68.7,57.1,68.8,57.2,68.8,57.4z"/>
	<path class="st28" d="M92.9,28.7c0.2,0,0.3,0.1,0.3,0.3c0,0.2-0.1,0.3-0.3,0.3c-0.1,0-0.2-0.1-0.2-0.2
		C92.5,28.8,92.7,28.7,92.9,28.7z"/>
	<path class="st15" d="M80.9,27c0,0.2-0.2,0.3-0.3,0.3c-0.2,0-0.3-0.2-0.2-0.4c0-0.1,0.2-0.2,0.3-0.2C80.8,26.7,80.9,26.8,80.9,27z"
		/>
	<path class="st29" d="M65.5,33.2c0,0-0.1-0.1-0.2-0.2c0.1-0.1,0.2-0.2,0.2-0.2c0.1,0,0.2,0.1,0.3,0.2
		C65.8,33.1,65.7,33.2,65.5,33.2z"/>
	<path class="st13" d="M91.7,24.7c0.2,0,0.4,0.1,0.4,0.3c0,0.1-0.1,0.2-0.2,0.2c-0.2,0-0.3-0.1-0.3-0.3
		C91.6,24.8,91.7,24.7,91.7,24.7z"/>
	<path class="st30" d="M73.5,25.2c-0.1-0.1-0.2-0.1-0.2-0.2c-0.1-0.2,0.1-0.3,0.2-0.3c0.1,0,0.2,0.1,0.3,0.2
		C73.8,25,73.7,25.1,73.5,25.2z"/>
	<path class="st31" d="M103.3,42.1c-0.1,0.2-0.2,0.3-0.4,0.3c-0.1,0-0.2-0.2-0.1-0.3c0-0.2,0.2-0.3,0.4-0.2
		C103.2,41.9,103.3,42.1,103.3,42.1z"/>
	<path class="st32" d="M68.8,49.3c-0.1,0.2-0.2,0.3-0.4,0.3c-0.1,0-0.2-0.2-0.2-0.3c0-0.2,0.2-0.3,0.3-0.2
		C68.7,49.1,68.8,49.2,68.8,49.3z"/>
	<path class="st33" d="M73.6,49.6c-0.1-0.1-0.2-0.2-0.2-0.3c0-0.1,0-0.3,0.1-0.3c0.2-0.1,0.3,0.1,0.3,0.2
		C73.8,49.3,73.7,49.4,73.6,49.6z"/>
	<path class="st15" d="M64.9,57.4c-0.3,0.2-0.4,0.3-0.6,0.3c0,0-0.2-0.2-0.2-0.2c0-0.2,0.1-0.3,0.3-0.3
		C64.6,57.2,64.7,57.3,64.9,57.4z"/>
	<path class="st34" d="M87.7,22.6c0.2,0.1,0.3,0.2,0.3,0.4c0,0.1-0.2,0.2-0.3,0.2c-0.2,0-0.3-0.2-0.2-0.4
		C87.5,22.7,87.6,22.7,87.7,22.6z"/>
	<path class="st35" d="M77.9,58.5c-0.1,0.1-0.2,0.1-0.3,0.2c-0.1-0.1-0.2-0.2-0.1-0.3c0-0.1,0.2-0.1,0.2-0.2
		C77.8,58.3,77.9,58.4,77.9,58.5z"/>
	<path class="st23" d="M95.9,26.7c0.2,0.1,0.3,0.2,0.3,0.4c0,0.1-0.2,0.2-0.3,0.2c-0.2,0-0.3-0.2-0.2-0.4
		C95.7,26.8,95.8,26.7,95.9,26.7z"/>
	<path class="st15" d="M95.9,40.4c-0.1-0.1-0.2-0.2-0.2-0.3c0-0.1,0.1-0.2,0.2-0.2c0.2,0,0.3,0.1,0.3,0.3
		C96.2,40.3,96,40.4,95.9,40.4z"/>
	<path class="st35" d="M73.6,65.3c0,0.1,0.2,0.2,0.2,0.2c0,0.2-0.1,0.3-0.3,0.3c-0.1,0-0.2-0.1-0.2-0.2
		C73.2,65.4,73.4,65.3,73.6,65.3z"/>
	<path class="st36" d="M81.4,66.7c0-0.2,0.1-0.4,0.3-0.4c0.1,0,0.2,0.1,0.2,0.2c0,0.2-0.1,0.3-0.3,0.3
		C81.6,66.9,81.5,66.7,81.4,66.7z"/>
	<path class="st37" d="M85.9,66.3c0.1,0.1,0.1,0.3,0.1,0.3c0,0.1-0.2,0.2-0.3,0.2c-0.2,0-0.3-0.2-0.2-0.3
		C85.6,66.4,85.7,66.4,85.9,66.3z"/>
	<path class="st38" d="M89.8,66.3c0.2,0,0.3,0.1,0.2,0.3c0,0.1-0.2,0.1-0.3,0.1c-0.1,0-0.3-0.1-0.2-0.2
		C89.6,66.4,89.7,66.3,89.8,66.3z"/>
	<path class="st39" d="M57.6,41.3c-0.1,0-0.2,0.1-0.3,0.1c-0.1,0-0.2-0.1-0.2-0.2c0.1-0.1,0.2-0.2,0.3-0.2
		C57.5,41,57.6,41.1,57.6,41.3z"/>
	<path class="st14" d="M69.5,65.3c0.1,0.1,0.2,0.2,0.2,0.3c0,0.2-0.1,0.3-0.3,0.3c-0.1,0-0.1-0.2-0.1-0.3
		C69.3,65.5,69.4,65.4,69.5,65.3z"/>
	<path class="st40" d="M76.6,23.2c-0.1-0.1-0.2-0.2-0.2-0.3c0-0.1,0.1-0.2,0.2-0.2c0.1,0.1,0.2,0.2,0.2,0.2
		C76.8,23,76.7,23,76.6,23.2z"/>
	<path class="st28" d="M64.6,49.3c-0.1,0.1-0.1,0.2-0.2,0.2c-0.1,0-0.2-0.1-0.2-0.2c0-0.1,0.1-0.2,0.1-0.2
		C64.5,49,64.6,49.1,64.6,49.3z"/>
	<path class="st21" d="M84.6,21.3c-0.1-0.2-0.1-0.3-0.2-0.4c0-0.2,0.1-0.3,0.3-0.3c0.1,0,0.2,0.2,0.2,0.2C85,21,84.8,21.1,84.6,21.3
		z"/>
	<path class="st41" d="M101,32.2c-0.1-0.1-0.1-0.2-0.2-0.2c0.1-0.1,0.2-0.1,0.3-0.2c0,0,0.2,0.1,0.2,0.2
		C101.3,32.2,101.2,32.2,101,32.2z"/>
	<path class="st9" d="M60.8,38.1c-0.2,0.1-0.3,0.2-0.4,0.1c-0.1,0-0.1-0.2-0.2-0.3c0.1,0,0.2-0.1,0.2-0.1
		C60.5,37.9,60.6,38,60.8,38.1z"/>
	<path class="st30" d="M102.9,50.7c0-0.2-0.1-0.3-0.1-0.4c0-0.1,0.2-0.1,0.3-0.2c0,0.1,0.1,0.2,0.1,0.2
		C103.2,50.4,103.1,50.5,102.9,50.7z"/>
	<path class="st25" d="M72.5,57.7c-0.1-0.2-0.1-0.3-0.1-0.4c0-0.1,0.2-0.1,0.3-0.2c0,0.1,0.1,0.2,0.1,0.2
		C72.7,57.5,72.6,57.6,72.5,57.7z"/>
	<path class="st22" d="M77.6,66.8c-0.1-0.1-0.2-0.2-0.3-0.2c0.1-0.1,0.1-0.2,0.2-0.2c0.1,0,0.2,0.1,0.2,0.2
		C77.8,66.6,77.7,66.7,77.6,66.8z"/>
</g>
</svg>
