<?xml version="1.0" encoding="utf-8"?>
<!-- Generator: Adobe Illustrator 28.2.0, SVG Export Plug-In . SVG Version: 6.00 Build 0)  -->
<svg version="1.1" id="Capa_1" xmlns="http://www.w3.org/2000/svg" xmlns:xlink="http://www.w3.org/1999/xlink" x="0px" y="0px"
	 viewBox="0 0 128 128" style="enable-background:new 0 0 128 128;" xml:space="preserve">
<style type="text/css">
	.st0{fill:#5AACFF;}
	.st1{fill:#DFDFDF;}
</style>
<g>
	<path class="st0" d="M75,80.9c-8.5,6.6-18,10.3-28.8,10.3C22.9,91.3,2.9,73,1.2,50c-1.8-23.9,14.6-44.8,38-48.5
		C57.3-1.3,75.1,7,84.7,22.6c9.4,15.4,8.7,34.9-1.8,49.6c-0.7,0.9-1.3,1.8-2,2.8C79,77,77,79,75,80.9z M46.1,9.5
		C25.8,9.5,9.5,25.8,9.5,46.1c0,20.3,16.6,36.9,36.8,36.8C66.5,82.8,82.9,66.2,82.9,46C82.8,25.8,66.4,9.4,46.1,9.5z"/>
	<path class="st1" d="M75,80.9c2-2,3.9-3.9,5.9-5.9c14.8,14.7,29.5,29.5,44.3,44.2c2.2,2.2,2.3,4.6,0.5,6.4
		c-1.8,1.8-4.3,1.7-6.5-0.5C104.5,110.5,89.8,95.7,75,80.9z"/>
</g>
</svg>
