<?xml version="1.0" encoding="utf-8"?>
<!-- Generator: Adobe Illustrator 26.3.1, SVG Export Plug-In . SVG Version: 6.00 Build 0)  -->
<svg version="1.1" id="Capa_1" xmlns="http://www.w3.org/2000/svg" xmlns:xlink="http://www.w3.org/1999/xlink" x="0px" y="0px"
	 viewBox="0 0 128 128" style="enable-background:new 0 0 128 128;" xml:space="preserve">
<style type="text/css">
	.st0{fill:#EAE9E9;}
	.st1{fill:#6E6E6E;}
	.st2{fill:#CD6BCD;}
</style>
<g>
	<path class="st0" d="M126.9,58.3c0,21,0,41.9,0,62.8c-16.7,0-33.4,0-50.1,0c0-19.5,0-39,0-58.6c-2.9,0-5.6,0-8.5,0
		c0-2.8,0-5.4,0-8.2c-2.9,0-5.6,0-8.5,0c0,2.6,0,5.3,0,8.1c-2.8,0-5.4,0-8.2,0c0,19.6,0,39.1,0,58.7c-16.8,0-33.5,0-50.2,0
		c0-0.6,0-1.1,0-1.6c0-19.8,0-39.5,0-59.3c0-0.6-0.2-1.2-0.3-1.9c5.5,0,11.1,0,16.9,0c0-12.6,0-25.1,0-37.7c5.6,0,11.1,0,16.7,0
		c0-5.6,0-11.1,0-16.6C43,4,51.3,4,59.7,4c0,8.3,0,16.6,0,25c2.9,0,5.7,0,8.5,0c0-8.3,0-16.6,0-25c8.4,0,16.6,0,25.1,0
		c0,5.4,0,10.9,0,16.5c5.6,0,11.1,0,16.7,0c0,12.6,0,25.1,0,37.7C115.7,58.3,121.3,58.3,126.9,58.3z M122.6,117
		c0-18.3,0-36.4,0-54.6c-14,0-27.8,0-41.7,0c0,18.2,0,36.4,0,54.6C94.8,117,108.6,117,122.6,117z M47.2,62.5c-14,0-27.9,0-41.7,0
		c0,18.2,0,36.4,0,54.5c14,0,27.8,0,41.7,0C47.2,98.8,47.2,80.7,47.2,62.5z M55.6,24.8c-11.3,0-22.4,0-33.5,0c0,11.2,0,22.4,0,33.4
		c11.2,0,22.4,0,33.5,0C55.6,47,55.6,35.9,55.6,24.8z M72.4,58.2c11.3,0,22.4,0,33.5,0c0-11.2,0-22.3,0-33.5c-11.2,0-22.3,0-33.5,0
		C72.4,35.9,72.4,47,72.4,58.2z M89.3,8.1c-5.7,0-11.3,0-16.8,0c0,4.2,0,8.3,0,12.4c5.7,0,11.2,0,16.8,0
		C89.3,16.3,89.3,12.3,89.3,8.1z M55.6,20.6c0-4.3,0-8.4,0-12.5c-5.6,0-11.1,0-16.5,0c0,4.2,0,8.3,0,12.5
		C44.6,20.6,50.1,20.6,55.6,20.6z M59.8,33.2c0,5.6,0,11.1,0,16.6c2.8,0,5.6,0,8.3,0c0-5.6,0-11.1,0-16.6
		C65.4,33.2,62.7,33.2,59.8,33.2z"/>
	<path class="st1" d="M122.6,117c-13.9,0-27.8,0-41.7,0c0-18.2,0-36.3,0-54.6c13.9,0,27.7,0,41.7,0C122.6,80.6,122.6,98.7,122.6,117
		z M93.3,108.5c0-9.7,0-19.4,0-29c-1.4,0-2.6,0-3.9,0c0,9.7,0,19.4,0,29C90.7,108.5,91.9,108.5,93.3,108.5z"/>
	<path class="st1" d="M47.2,62.5c0,18.2,0,36.3,0,54.5c-13.9,0-27.8,0-41.7,0c0-18.1,0-36.3,0-54.5C19.3,62.5,33.2,62.5,47.2,62.5z
		 M34.8,79.4c0,9.8,0,19.4,0,29c1.4,0,2.8,0,4.1,0c0-9.7,0-19.4,0-29C37.5,79.4,36.2,79.4,34.8,79.4z"/>
	<path class="st1" d="M55.6,24.8c0,11.1,0,22.2,0,33.4c-11.1,0-22.2,0-33.5,0c0-11.1,0-22.2,0-33.4C33.2,24.8,44.4,24.8,55.6,24.8z
		 M47.1,37.4c-1.4,0-2.7,0-3.9,0c0,4.2,0,8.2,0,12.3c1.3,0,2.6,0,3.9,0C47.1,45.6,47.1,41.5,47.1,37.4z"/>
	<path class="st1" d="M72.4,58.2c0-11.2,0-22.3,0-33.5c11.2,0,22.3,0,33.5,0c0,11.1,0,22.3,0,33.5C94.8,58.2,83.6,58.2,72.4,58.2z
		 M84.8,49.8c0-4.2,0-8.3,0-12.4c-1.4,0-2.6,0-3.9,0c0,4.2,0,8.2,0,12.4C82.2,49.8,83.5,49.8,84.8,49.8z"/>
	<path class="st1" d="M89.3,8.1c0,4.2,0,8.3,0,12.4c-5.6,0-11.2,0-16.8,0c0-4.1,0-8.2,0-12.4C78,8.1,83.6,8.1,89.3,8.1z"/>
	<path class="st1" d="M55.6,20.6c-5.5,0-11,0-16.5,0c0-4.2,0-8.3,0-12.5c5.5,0,11,0,16.5,0C55.6,12.2,55.6,16.3,55.6,20.6z"/>
	<path class="st2" d="M93.3,108.5c-1.3,0-2.6,0-3.9,0c0-9.7,0-19.3,0-29c1.3,0,2.5,0,3.9,0C93.3,89.1,93.3,98.7,93.3,108.5z"/>
	<path class="st2" d="M34.8,79.4c1.4,0,2.7,0,4.1,0c0,9.7,0,19.3,0,29c-1.3,0-2.7,0-4.1,0C34.8,98.8,34.8,89.2,34.8,79.4z"/>
	<path class="st2" d="M47.1,37.4c0,4.1,0,8.2,0,12.3c-1.3,0-2.6,0-3.9,0c0-4.1,0-8.2,0-12.3C44.5,37.4,45.7,37.4,47.1,37.4z"/>
	<path class="st2" d="M84.8,49.8c-1.3,0-2.6,0-3.9,0c0-4.1,0-8.2,0-12.4c1.2,0,2.5,0,3.9,0C84.8,41.4,84.8,45.6,84.8,49.8z"/>
</g>
</svg>
