<?xml version="1.0" encoding="utf-8"?>
<!-- Generator: Adobe Illustrator 28.2.0, SVG Export Plug-In . SVG Version: 6.00 Build 0)  -->
<svg version="1.1" id="Capa_1" xmlns="http://www.w3.org/2000/svg" xmlns:xlink="http://www.w3.org/1999/xlink" x="0px" y="0px"
	 viewBox="0 0 128 128" style="enable-background:new 0 0 128 128;" xml:space="preserve">
<style type="text/css">
	.st0{fill:#F6F6F6;}
	.st1{fill:#0078D4;}
	.st2{fill:#272727;}
</style>
<g>
	<path class="st0" d="M80.9,75c0.7-0.9,1.3-1.9,2-2.8C93.4,57.5,94.1,38,84.7,22.6C75.1,7,57.3-1.3,39.2,1.6
		C15.8,5.2-0.7,26.2,1.2,50c1.8,23,21.8,41.3,45.1,41.2c10.8,0,20.3-3.8,28.8-10.3c14.7,14.8,29.5,29.5,44.2,44.3
		c2.2,2.2,4.6,2.3,6.5,0.5c1.8-1.8,1.7-4.2-0.5-6.4C110.5,104.5,95.7,89.8,80.9,75z"/>
	<path class="st1" d="M75,80.9c-8.5,6.6-18,10.3-28.8,10.3C22.9,91.3,2.9,73,1.2,50c-1.8-23.9,14.6-44.8,38-48.5
		C57.3-1.3,75.1,7,84.7,22.6c9.4,15.4,8.7,34.9-1.8,49.6c-0.7,0.9-1.3,1.8-2,2.8C79,77,77,79,75,80.9z M46.1,9.5
		C25.8,9.5,9.5,25.8,9.5,46.1c0,20.3,16.6,36.9,36.8,36.8C66.5,82.8,82.9,66.2,82.9,46C82.8,25.8,66.4,9.4,46.1,9.5z"/>
	<path class="st2" d="M75,80.9c2-2,3.9-3.9,5.9-5.9c14.8,14.7,29.5,29.5,44.3,44.2c2.2,2.2,2.3,4.6,0.5,6.4
		c-1.8,1.8-4.3,1.7-6.5-0.5C104.5,110.5,89.8,95.7,75,80.9z"/>
	<path class="st0" d="M46.1,9.5c20.2,0,36.7,16.4,36.8,36.6c0,20.2-16.4,36.7-36.6,36.8C26,82.9,9.5,66.4,9.5,46.1
		C9.5,25.8,25.8,9.5,46.1,9.5z"/>
</g>
</svg>
