<?xml version="1.0" encoding="utf-8"?>
<!-- Generator: Adobe Illustrator 28.2.0, SVG Export Plug-In . SVG Version: 6.00 Build 0)  -->
<svg version="1.1" id="Capa_1" xmlns="http://www.w3.org/2000/svg" xmlns:xlink="http://www.w3.org/1999/xlink" x="0px" y="0px"
	 viewBox="0 0 2058 2048" style="enable-background:new 0 0 2058 2048;" xml:space="preserve">
<style type="text/css">
	.st0{fill:#272727;}
	.st1{fill:#0078D4;}
</style>
<g>
	<path class="st0" d="M1984,1280c-12-18.7-27-36.2-45-52.5s-37.3-31.8-58-46.5s-40-29.8-58-45.5s-33-32.5-45-50.5s-18-38.3-18-61
		c0-23.3,6-43.8,18-61.5s26.8-34.3,44.5-50s37-30.5,58-44.5s40.3-28.8,58-44.5s32.5-32.8,44.5-51.5s18-40.3,18-65
		c0-12.7-3-28.3-9-47s-13.8-38.5-23.5-59.5s-20.8-42.7-33.5-65s-25.3-43.5-38-63.5s-24.8-38.3-36.5-55c-11.7-16.7-21.8-30-30.5-40
		c-13.3-15.3-28.2-27.2-44.5-35.5c-16.3-8.3-34.8-12.5-55.5-12.5c-23.3,0-46.3,4.3-69,13c-22.7,8.7-45.2,18-67.5,28
		s-44.8,19.3-67.5,28c-22.7,8.7-45.7,13-69,13c-29.3,0-55-9.3-77-28c-22-18.7-35.7-42.3-41-71c-6-32.7-11.7-65-17-97s-11-64.3-17-97
		c-5.3-28-17-51-35-69s-41-29.7-69-35c-27.3-5.3-55-9-83-11s-56-3-84-3c-26.7,0-53.7,0.8-81,2.5c-27.3,1.7-54.3,4.8-81,9.5
		c-28,5.3-51.5,17-70.5,35s-31.2,41-36.5,69l-18,98l-18,98c-5.3,29.3-18.8,53.2-40.5,71.5C666.8,401.8,641,411,611,411
		c-23.3,0-46.2-4.3-68.5-13c-22.3-8.7-44.5-18.2-66.5-28.5c-22-10.3-44-19.8-66-28.5c-22-8.7-44.7-13-68-13c-19.3,0-37.5,4-54.5,12
		s-32.2,19.3-45.5,34c-8.7,9.3-19,22.3-31,39c-12,16.7-24.5,35.2-37.5,55.5c-13,20.3-26,41.7-39,64c-13,22.3-24.5,44.2-34.5,65.5
		s-18.2,41.3-24.5,60S66,692,66,704c0,24,6,45.3,18,64s27,36.2,45,52.5s37.3,31.8,58,46.5s40,29.8,58,45.5s33,32.5,45,50.5
		s18,38.3,18,61c0,23.3-6,43.8-18,61.5s-26.8,34.3-44.5,50s-37,30.5-58,44.5s-40.3,28.8-58,44.5s-32.5,33-44.5,52S67,1317,67,1341
		c0,12.7,3,28.3,9,47s13.8,38.5,23.5,59.5s20.8,42.7,33.5,65s25.3,43.5,38,63.5s24.8,38.3,36.5,55s21.8,30,30.5,40
		c13.3,15.3,28.3,27.2,45,35.5c16.7,8.3,35,12.5,55,12.5c23.3,0,46.3-4.3,69-13c22.7-8.7,45.2-18,67.5-28c22.3-10,44.8-19.3,67.5-28
		c22.7-8.7,45.7-13,69-13c29.3,0,55,9.3,77,28s35.7,42.3,41,71c6,32,11.7,64.2,17,96.5s11,64.5,17,96.5c5.3,28,17,51.2,35,69.5
		s41,30.2,69,35.5c27.3,5.3,55,9,83,11s56,3,84,3c27.3,0,54.5-0.8,81.5-2.5s53.8-4.8,80.5-9.5c28.7-5.3,52.3-16.8,71-34.5
		s30.7-40.8,36-69.5c3.3-17.3,6.5-34.2,9.5-50.5s6.2-33.2,9.5-50.5c4-21.3,7.8-43.5,11.5-66.5s9.8-44,18.5-63s21-34.5,37-46.5
		s38.7-18,68-18c21.3,0,43.3,4.3,66,13s45.3,18.2,68,28.5s45.5,19.8,68.5,28.5s45.5,13,67.5,13c19.3,0,37.2-4,53.5-12
		s31.2-19.3,44.5-34c8.7-10,19.2-23.3,31.5-40s25-35,38-55s26-41,39-63s24.5-43.7,34.5-65s18.2-41.2,24.5-59.5s9.5-34.2,9.5-47.5
		C2002,1320,1996,1298.7,1984,1280z M1873,1344c-18,44.7-39,87.8-63,129.5s-51.7,81.2-83,118.5c-18-6.7-38.7-14.7-62-24
		s-47.5-18.3-72.5-27s-49.3-16.2-73-22.5s-44.5-9.5-62.5-9.5c-54,0-101.7,15-143,45s-71.3,70-90,120c-4.7,12.7-9.3,29.3-14,50
		s-9,42.3-13,65s-7.7,44.8-11,66.5s-6.3,39.8-9,54.5c-23.3,3.3-47,5.8-71,7.5s-48,2.5-72,2.5c-48.7,0-97-4-145-12l-34-195
		c-6.7-36-20.5-69-41.5-99s-47.5-54-79.5-72c-38-22-79.7-33-125-33c-28,0-55.3,4.7-82,14l-188,68h-1c-28-34.7-53.2-70.8-75.5-108.5
		c-22.3-37.7-41.5-77.2-57.5-118.5c-0.7-0.7-2.3-4.5-5-11.5s-4-10.8-4-11.5v-1l151-126c28-23.3,49.8-51.7,65.5-85
		c15.7-33.3,23.5-68.3,23.5-105c0-36.7-7.7-71.5-23-104.5c-15.3-33-37-61.2-65-84.5L195,705v-1c17.3-45.3,38.3-88.5,63-129.5
		S310.3,494,341,456h1l184,68h1c26.7,10,55,15,85,15c30.7,0,59.3-5.2,86-15.5s50.7-24.5,72-42.5s39.3-39.5,54-64.5s25-52.2,31-81.5
		c7.3-32.7,13.7-65.3,19-98c5.3-32.7,11-65.7,17-99c23.3-3.3,47-5.8,71-7.5s48-2.5,72-2.5c48.7,0,97,4,145,12l34,195
		c6.7,36,20.5,69,41.5,99s47.5,54,79.5,72c38,22,79.7,33,125,33c28,0,55.3-4.7,82-14l188-68h1c28,34.7,53.2,70.8,75.5,108.5
		S1847,642.7,1863,684c0.7,0.7,2.3,4.5,5,11.5s4,10.8,4,11.5v1l-151,126c-28,23.3-49.8,51.7-65.5,85s-23.5,68.3-23.5,105
		c0,36.7,7.7,71.5,23,104.5s37,61.2,65,84.5l153,130V1344z"/>
	<path class="st1" d="M1306,752c-34.7-34.7-75.3-62-122-82s-96.7-30-150-30c-53.3,0-103.3,10-150,30s-87.3,47.3-122,82
		s-62,75.3-82,122s-30,96.7-30,150c0,53.3,10,103.3,30,150s47.3,87.3,82,122s75.3,62,122,82s96.7,30,150,30c53.3,0,103.3-10,150-30
		s87.3-47.3,122-82s62-75.3,82-122s30-96.7,30-150c0-53.3-10-103.3-30-150S1340.7,786.7,1306,752z M1270,1123.5
		c-13.3,31-31.7,58.2-55,81.5s-50.5,41.7-81.5,55s-64.2,20-99.5,20c-35.3,0-68.5-6.7-99.5-20s-58.2-31.7-81.5-55s-41.7-50.5-55-81.5
		s-20-64.2-20-99.5c0-35.3,6.7-68.5,20-99.5s31.7-58.2,55-81.5s50.5-41.7,81.5-55s64.2-20,99.5-20c35.3,0,68.5,6.7,99.5,20
		s58.2,31.7,81.5,55s41.7,50.5,55,81.5s20,64.2,20,99.5C1290,1059.3,1283.3,1092.5,1270,1123.5z"/>
</g>
</svg>
