<?xml version="1.0" encoding="utf-8"?>
<!-- Generator: Adobe Illustrator 26.3.1, SVG Export Plug-In . SVG Version: 6.00 Build 0)  -->
<svg version="1.1" id="Capa_1" xmlns="http://www.w3.org/2000/svg" xmlns:xlink="http://www.w3.org/1999/xlink" x="0px" y="0px"
	 viewBox="0 0 128 128" style="enable-background:new 0 0 128 128;" xml:space="preserve">
<style type="text/css">
	.st0{fill:#4C4C4C;}
	.st1{fill:#EAE9E9;}
</style>
<g>
	<path class="st0" d="M37.6,66.1c0-15.9,0-31.7,0-47.6c0-1.1,0.3-1.5,1.5-1.4c5.8,0,11.6,0,17.4,0c0-3.8,0-7.6,0-11.5
		c0-1.1-0.3-1.5-1.5-1.4c-16.8,0-33.7,0-50.5,0C3.2,4.2,3,4.5,3,5.6c0,15.9,0,31.7,0,47.6s0,31.7,0,47.6c0,1,0.2,1.4,1.4,1.4
		c11.1,0,22.1,0,33.2,0C37.6,90.1,37.6,78.1,37.6,66.1z"/>
</g>
<g>
	<path class="st1" d="M42.9,74.2c0-17.2,0-34.4,0-51.6c0-1.2,0.3-1.4,1.4-1.4c18.2,0,36.4,0.1,54.5,0c1.9,0,3.1,0.8,4.3,2
		c2.4,2.6,5,5.1,7.6,7.6c2,2,4,4.1,6,6.1c1.8,1.8,3.6,3.7,5.5,5.5c1.9,1.8,3.8,3.6,5.6,5.5c0.4,0.4,0.2,0.9,0.2,1.3
		c0,10.6,0,21.2,0,31.8c0,15,0,30,0,45.1c0,1.2-0.2,1.6-1.5,1.6c-27.3,0-54.7,0-82,0c-1.2,0-1.6-0.3-1.6-1.6
		C42.9,108.7,42.9,91.5,42.9,74.2z"/>
	<path class="st1" d="M60.1,7.2c-0.4,0.5-0.2,1-0.2,1.4c0,2.5,0,5,0,7.5c0,0.7-0.2,0.9-0.9,0.9c-3.5,0.1-3.5,0.1-3.5-3.5
		c0-2.8,0-5.6,0-8.4c0-0.8-0.2-1-1-1c-16.4,0-32.7,0-49.1,0c-1,0-1,0.4-1,1.1c0,4.6,0,9.1,0,13.7c0,27.2,0,54.4,0,81.6
		c0,1.3,0.3,1.6,1.6,1.6c10.3-0.1,20.6,0,31-0.1c1.1,0,1.6,0.1,1.6,1.5c-0.1,2.7,0,2.7-2.8,2.7c-11.4,0-22.8,0-34.2,0
		c-1.1,0-1.4-0.3-1.4-1.4c0-34.5,0-69.1,0-103.6C0.2,0.2,0.5,0,1.5,0C20,0,38.5,0,56.9,0c1.4,0,2.4,0.6,3.2,1.6
		c3.2,3.4,6.6,6.6,9.9,10c1.5,1.6,2.9,3.3,4.9,4.5c0.1,0.1,0.3,0.4,0.2,0.4c-0.4,0-0.3,0.7-0.8,0.6c-2.3-0.1-4.6,0.3-6.5-1.9
		c-2.1-2.4-4.4-4.6-6.8-6.7C60.5,8.1,60.6,7.5,60.1,7.2z"/>
	<path class="st0" d="M47.1,74.4c0-15.9,0-31.7,0-47.6c0-1.1,0.2-1.5,1.4-1.4c16.1,0,32.2,0,48.3,0c1.2,0,1.4,0.3,1.4,1.4
		c-0.1,7.5,0,15-0.1,22.5c0,1.4,0.2,1.9,1.8,1.8c7.4-0.1,14.9,0,22.3-0.1c1.1,0,1.4,0.2,1.4,1.4c0,23.2,0,46.4,0,69.6
		c0,1.1-0.3,1.3-1.4,1.3c-24.6,0-49.2,0-73.8,0c-1.2,0-1.3-0.4-1.3-1.4C47.1,106.1,47.1,90.3,47.1,74.4z"/>
	<path class="st0" d="M102.3,37.7c0-2.7,0-5.4,0-8.1c0-0.3-0.3-0.8,0.4-0.9c0.5-0.1,0.5,0.4,0.6,0.6c0.9,1.4,2.3,2.3,3.4,3.5
		c1.4,1.7,3.2,3,4.6,4.7c1,1.1,2.1,2.1,3.2,3.1c1.2,1.1,2.4,2.2,3.4,3.4c0.5,0.6,1.4,0.7,1.5,1.6c0,0.3,0.7,0.2,0.4,0.6
		c-0.2,0.3-0.5,0.6-1.1,0.6c-2.2-0.1-4.5,0-6.7,0c-2.8,0-5.7,0-8.5,0c-1,0-1.4-0.2-1.3-1.3C102.4,43,102.3,40.4,102.3,37.7z"/>
</g>
</svg>
