<?xml version="1.0" encoding="utf-8"?>
<!-- Generator: Adobe Illustrator 28.2.0, SVG Export Plug-In . SVG Version: 6.00 Build 0)  -->
<svg version="1.1" id="Capa_1" xmlns="http://www.w3.org/2000/svg" xmlns:xlink="http://www.w3.org/1999/xlink" x="0px" y="0px"
	 viewBox="0 0 128 128" style="enable-background:new 0 0 128 128;" xml:space="preserve">
<style type="text/css">
	.st0{fill:#FEFEFE;}
	.st1{fill:#5AACFF;}
	.st2{fill:#DFDFDF;}
</style>
<path class="st0" d="M37,97.1c0.1,0,0.2,0.1,0.3,0.2c0.1,0.7,0.3,1.5,0.7,2.1c0,0.1,0,0.2-0.1,0.2C37.4,98.9,37.1,98,37,97.1z"/>
<path class="st0" d="M43.3,104.4c0.7-0.2,1.4,0,2,0.4C44.7,104.8,44,104.7,43.3,104.4z"/>
<path class="st0" d="M38.2,100.4c0.5,0,0.4,0.4,0.5,0.7C38.5,100.9,38.4,100.7,38.2,100.4z"/>
<path class="st0" d="M38,100c0.3,0,0.3,0.2,0.3,0.5C38.1,100.3,38,100.1,38,100z"/>
<g>
	<path class="st1" d="M92.2,103.6c-0.1,4.5,0,9-0.4,13.5c-0.6,7-3.7,10.6-10.7,10.7c-21.6,0.3-43.2,0.3-64.8,0
		c-6.8-0.1-10-4.1-10-11.1c-0.1-27-0.1-54.1,0-81.1c0-8.1,3.2-11.1,11.4-11.3c6.2-0.1,12.4,0,18.6,0c2.5-0.4,5.2,0.9,7.4-1
		c11.8,0.1,23.6,0,35.5,0.2c9.3,0.2,13.1,4.1,13.1,13.2c0,19.9-0.1,39.8-0.1,59.7C91.5,98.7,91.5,101.2,92.2,103.6z M13.3,76.3
		c0,12.6,0.1,25.2-0.1,37.8c-0.1,4.6,1.7,6.4,6.3,6.3c19.6-0.1,39.1-0.1,58.7,0c4.2,0,6.2-1.4,6.2-5.9c-0.1-25.6-0.2-51.1-0.1-76.7
		c0-4.1-1.6-5.7-5.7-5.7c-19.3-0.2-38.7-0.5-58-0.9c-5.3-0.1-7.4,2-7.3,7.3C13.4,51.1,13.3,63.7,13.3,76.3z"/>
	<path class="st2" d="M43.7,23.2c-2.2,2-4.9,0.7-7.4,1c0-4.7-0.2-9.4,0-14.1c0.3-6.4,3.5-10,9.8-10.1C68-0.1,90-0.1,112,0.2
		c6.3,0.1,9.6,3.8,9.7,10.1c0.1,27.8,0.1,55.6,0,83.3c0,6.5-3.6,9.8-10.3,10c-6.4,0.1-12.8,0-19.1,0.1c-0.7-2.4-0.7-4.9,0-7.3
		c5.4,0.1,10.9-0.1,16.3,0.2c4.7,0.3,6.2-1.5,6.2-6.2c-0.2-25.7-0.2-51.4,0-77.1c0-4.9-1.8-6-6.3-5.9c-16.5,0.2-33,0.1-49.5,0.1
		C43.2,7.4,43.2,7.4,43.7,23.2z"/>
</g>
</svg>
