<?xml version="1.0" encoding="utf-8"?>
<!-- Generator: Adobe Illustrator 26.3.1, SVG Export Plug-In . SVG Version: 6.00 Build 0)  -->
<svg version="1.1" id="Capa_1" xmlns="http://www.w3.org/2000/svg" xmlns:xlink="http://www.w3.org/1999/xlink" x="0px" y="0px"
	 viewBox="0 0 128 128" style="enable-background:new 0 0 128 128;" xml:space="preserve">
<style type="text/css">
	.st0{fill:#EAE9E9;}
	.st1{fill:#49B7ED;}
</style>
<g>
	<path class="st0" d="M73.3,67.9c-0.2,0.8,0.5,1.1,0.9,1.6c3.5,5.5,6.9,10.9,10.4,16.4c0.3,0.3,0.6,0.6,0.5,1.1
		c-0.1,0.4-0.4,0.6-0.7,0.8c-1.3,0.6-2.5,1.4-3.7,2.4c-0.2,0.2-0.5,0.4-0.8,0.1c-5-7.8-10-15.6-14.9-23.3c-0.7-1.1-1.1-1.1-1.7-0.1
		c-1.7,2.7-3.4,5.4-5.1,8.1c-0.2,0.3-0.4,0.7-0.6,1.1c-0.1,0.5-0.3,0.9-0.7,1.1c-1.6,2.5-3.1,4.9-4.7,7.4c-0.2,0.3-0.1,0.8-0.6,0.9
		c-1.1,1.6-2.2,3.2-3.3,4.7c-0.3,0.2-0.5,0.1-0.8,0c-1.5-0.9-3-1.8-4.4-2.8c-0.2-0.2-0.4-0.4-0.4-0.7c-0.2-0.5,0.2-0.9,0.4-1.3
		c5.3-8.2,10.6-16.4,16-24.6c0.7-1.1,0.5-2-0.2-3.1C49.6,42.8,40.1,27.9,30.6,13c-0.7-1.2-1.1-2.3-1.1-3.7c0.1-3.1,0-6.1,0-9.3
		c0.8,0.1,1,0.7,1.2,1.1C39.5,14.9,48.2,28.7,57,42.5c0.2,0.3,0.4,0.5,0.6,0.7c2.4,3.9,4.9,7.8,7.3,11.7
		C67.7,59.3,70.5,63.6,73.3,67.9z"/>
	<path class="st0" d="M73.9,50.5c-0.4,0.3-0.7,0.5-0.8,1c-0.6,0.9-1.2,1.8-1.8,2.7c-0.5,0.9-0.9,0.8-1.4,0c-0.6-0.9-1.2-1.8-1.8-2.7
		C67,51,67.4,50,67.4,49.2c1.1-1.9,2.2-3.7,3.4-5.6c0.3-0.4-0.3-0.9,0.3-1.2c0.7-0.3,1.1-0.9,1.5-1.6C80.7,27.7,88.8,14.6,97,1.5
		c0.2-0.4,0.4-0.9,0.9-1.1c0.4,0.4,0.3,0.8,0.3,1.3c0,2,0,4.1,0.1,6.1c0.1,2.4-0.6,4.5-1.8,6.5C91.2,22.6,85.9,31,80.7,39.4
		c-0.5,0.7-0.9,1.5-1.3,2.2c-0.3,0.4-0.8,0.7-0.8,1.3C77,45.5,75.5,48,73.9,50.5z"/>
	<path class="st1" d="M51.7,94.3c-1-1.4-2.4-2.6-3.3-4.1c-1.8-1.2-3.6-2.3-5.5-3.5c-0.6-0.3-1.1-0.7-1.8-0.8c-2-0.6-4.1-0.5-6.1-0.5
		c-1.1,0.3-2.3,0.5-3.4,0c-1.1-0.2-2.3,0.1-3.4,0.1c-0.8,0.8-1.7,1.2-2.8,1.1c-0.5,0.3-0.9,0.6-1.4,0.8
		c-7.3,4.3-11.5,10.6-11.6,19.2c-0.1,7.1,3.1,12.7,8.7,16.9c9.7,7.3,23.1,5,30.3-4.4C56.7,112.3,57.4,102.2,51.7,94.3z M33.8,122.8
		c-9-0.1-16.4-7.5-16.3-16.4c0-9,7.5-16.2,16.6-16.2c9,0,16.3,7.4,16.3,16.4C50.3,115.6,42.8,122.8,33.8,122.8z"/>
	<path class="st1" d="M109,91.1c-2.1-1.9-4.4-3.3-6.8-4.7c-1-0.3-2-0.6-3-0.8c-1.2-0.2-2.3-0.2-3.5,0c-1.4,0-2.7,0-4.1-0.1
		c-1,0-2,0-3,0c-1.4,0.1-2.4,1-3.7,1.5c-1.8,0.9-3.5,2-5.1,3.3c-0.3,0.4-0.6,0.8-1,1.1c-3.1,3.1-5.2,6.8-6,11.2
		c-1.7,8.8,2.6,18.3,10.2,22.5c8.5,4.7,18.4,3.7,25.4-2.6C118.4,113.5,117.7,99.1,109,91.1z M94,122.8c-9,0-16.4-7.4-16.4-16.3
		c0-9,7.4-16.3,16.6-16.2c9,0,16.3,7.4,16.3,16.4C110.4,115.5,103,122.8,94,122.8z"/>
</g>
</svg>
