<?xml version="1.0" encoding="utf-8"?>
<!-- Generator: Adobe Illustrator 26.3.1, SVG Export Plug-In . SVG Version: 6.00 Build 0)  -->
<svg version="1.1" id="Capa_1" xmlns="http://www.w3.org/2000/svg" xmlns:xlink="http://www.w3.org/1999/xlink" x="0px" y="0px"
	 viewBox="0 0 512 512" style="enable-background:new 0 0 512 512;" xml:space="preserve">
<style type="text/css">
	.st0{fill:#EAE9E9;}
	.st1{fill:#CD6BCD;}
</style>
<path class="st0" d="M376,508H136c-50.7,0-92-41.3-92-92V96c0-50.7,41.3-92,92-92h240c50.7,0,92,41.3,92,92v320
	C468,466.7,426.7,508,376,508z M136,28c-37.5,0-68,30.5-68,68v320c0,37.5,30.5,68,68,68h240c37.5,0,68-30.5,68-68V96
	c0-37.5-30.5-68-68-68H136z"/>
<path class="st1" d="M376,228H136c-6.6,0-12-5.4-12-12s5.4-12,12-12h240c6.6,0,12,5.4,12,12S382.6,228,376,228z"/>
<path class="st1" d="M376,308H136c-6.6,0-12-5.4-12-12s5.4-12,12-12h240c6.6,0,12,5.4,12,12S382.6,308,376,308z"/>
<path class="st1" d="M256,388H136c-6.6,0-12-5.4-12-12s5.4-12,12-12h120c6.6,0,12,5.4,12,12S262.6,388,256,388z"/>
</svg>
