<?xml version="1.0" encoding="utf-8"?>
<!-- Generator: Adobe Illustrator 26.3.1, SVG Export Plug-In . SVG Version: 6.00 Build 0)  -->
<svg version="1.1" id="Capa_1" xmlns="http://www.w3.org/2000/svg" xmlns:xlink="http://www.w3.org/1999/xlink" x="0px" y="0px"
	 viewBox="0 0 128 128" style="enable-background:new 0 0 128 128;" xml:space="preserve">
<style type="text/css">
	.st0{fill:#EAE9E9;}
	.st1{fill:#4C4C4C;}
</style>
<g>
	<path class="st0" d="M0.1,39.7c0-0.2,0-0.3,0-0.5c0.3-0.5,0.2-1.1,0.2-1.6c0-7.7,0-15.4,0-23.1c0-1.8,0.4-3.4,1.5-4.8
		c1.5-2,3.6-2.7,5.9-2.8c1.1,0,2.2,0,3.3,0c11.2,0,22.4,0,33.7,0c2.1,0,4.2,0.2,6.3,0.5c1.8,0.3,3.1,1.5,4.5,2.5
		c4.1,3.1,8.3,6.2,12.4,9.2c1.3,1,2.9,1.3,4.5,1.3c17.4,0,34.9,0,52.3,0.1c0.9,0,1.8,0,2.6,0c0.6,0,0.9,0.2,0.9,0.9
		c0,0.3,0,0.6,0,0.9c0,20.1,0,40.2,0,60.4c0,12.3,0,24.6,0,36.9c0,1.1-0.3,1.5-1.5,1.5c-41.7,0-83.4,0-125,0c-1.1,0-1.4-0.3-1.4-1.4
		c0-10.8,0-21.7,0-32.5c0-0.5,0-1.1,0-1.6c0.1-1.2,0.2-2.4,0-3.6c0-1.5,0-3,0-4.5c0-0.5,0.1-0.9-0.3-1.3c-0.1-0.2-0.1-0.4,0-0.5
		c0.4-0.5,0.3-1,0.2-1.6c-0.1-2.3,0.3-4.7-0.2-7.1c0-0.1,0-0.3,0-0.4c0.2-0.7,0.2-1.4,0.1-2.1c-0.3-2.1,0.1-4.1,0.1-6.2
		c0.1-0.3-0.1-0.5-0.2-0.8c0.3-0.4,0.2-0.9,0.2-1.3c0-2.1,0-4.1,0-6.2c0-0.4,0.1-0.9-0.2-1.3c-0.2-0.3,0.1-0.4,0.2-0.5
		c0-2.5,0-5.1,0.1-7.6C0.4,40.3,0.3,40,0.1,39.7z"/>
	<path class="st1" d="M123.7,37.4C123.7,37.4,123.7,37.4,123.7,37.4c0-3.2,0-6.3,0-9.4c0-2.8,0-2.8-2.7-2.8
		c-11.9-0.1-23.8,0.1-35.8-0.1c-4.4-0.1-8.7,0-13.1,0.1c-2.7,0.1-5.3,0.5-7.7,1.6c-4.7,2.1-9.6,2.9-14.7,2.9c-14.3,0-28.6,0-43,0
		c-0.3,0-0.7,0-1,0c-0.7-0.1-0.9,0.2-0.9,0.9c0,2.2,0,4.4,0,6.5c0,0.8,0,1.7,0,2.5c0,24.3,0,48.7,0,73c0,3,0.4,3.9,1.5,3.8
		c6.1-0.3,12.2-0.4,18.3-0.4c30.9-0.2,61.8-0.1,92.6-0.1c1.7,0,3.4,0.2,5.2,0.4c0.9,0.1,1.2-0.8,1.2-3.1
		C123.7,88,123.7,62.7,123.7,37.4z"/>
	<path class="st1" d="M30.4,25.2c-8,0-16,0-24.1,0c-1.1,0-1.5-0.3-1.4-1.4c0.1-2.9,0-5.7,0-8.6c0-3.3,0.5-3.8,3.9-3.8
		c7.5,0,15,0,22.6,0c4.7,0,9.5,0,14.2,0c3.1,0,5.8,0.7,8.2,2.8c2.9,2.6,6.3,4.6,9.3,7.2c0.9,0.8,0.7,1-0.3,1.4
		c-4.5,1.8-9.1,2.6-14,2.5C42.6,25.1,36.5,25.2,30.4,25.2z"/>
</g>
</svg>
