<?xml version="1.0" encoding="utf-8"?>
<!-- Generator: Adobe Illustrator 28.2.0, SVG Export Plug-In . SVG Version: 6.00 Build 0)  -->
<svg version="1.1" id="Capa_1" xmlns="http://www.w3.org/2000/svg" xmlns:xlink="http://www.w3.org/1999/xlink" x="0px" y="0px"
	 viewBox="0 0 128 128" style="enable-background:new 0 0 128 128;" xml:space="preserve">
<style type="text/css">
	.st0{fill:#EF5333;}
	.st1{fill:#F6D98D;}
	.st2{fill:#0078D4;}
</style>
<g>
	<path class="st0" d="M57.3,123c-14.6,0-29.1,0-43.7,0c-8.9,0-13-4.1-13-13c0-24.3,0-48.6,0-72.9c0-8.5,4.6-13,13.1-13
		c11.6,0,23.2,0.1,34.8,0c5.1,0,8.9,2,11.5,6.4c1.6,2.7,3.4,5.3,5,8.1c0.9,1.7,2.1,2.3,4.1,2.3c10.3-0.1,20.7,0,31,0
		c9.2,0,13.3,3.9,13.8,13.1c0.1,1.6,0.6,2.2,2.2,2.2c1.7,0,3.4,0,5,0.3c5.4,0.9,8.5,5.4,7,10.7c-4.3,15.3-8.6,30.6-13.1,45.9
		c-1.8,6.2-7.3,10-13.8,10C86.7,123,72,123,57.3,123z M73.5,62.6c-14.8,0-29.6,0-44.3,0c-4.9,0-7,1.5-8.3,6.1
		C16.8,82.8,12.8,96.9,8.8,111c-1.3,4.5-0.7,5.2,4,5.2c29.4,0,58.9,0,88.3,0c4.9,0,7.1-1.7,8.4-6.4c4-14.2,8.1-28.4,12.1-42.5
		c1.1-4,0.7-4.6-3.5-4.6C103.2,62.6,88.3,62.6,73.5,62.6z M6.9,92c0.2,0,0.3,0.1,0.5,0.1c0.3-1,0.6-1.9,0.9-2.9
		c2.1-7.2,4.1-14.4,6.2-21.6c2.3-8,6.8-11.4,15.2-11.4c24.5,0,49,0,73.5,0c0.7,0,1.5-0.1,2.2,0c1.6,0.1,2.2-0.4,2.3-2.1
		c0.1-4.8-1.9-6.9-6.8-6.9c-11.7,0-23.4-0.1-35.2,0c-2.1,0-3.3-0.6-4.3-2.4c-2.1-3.7-4.5-7.2-6.6-10.8c-1.5-2.5-3.5-3.6-6.5-3.6
		c-11.6,0.1-23.2,0-34.9,0c-4.8,0-6.5,1.8-6.5,6.5c0,17.7,0,35.5,0,53.2C6.9,90.8,6.9,91.4,6.9,92z"/>
	<path class="st1" d="M73.5,62.6c14.9,0,29.8,0,44.6,0c4.3,0,4.7,0.6,3.5,4.6c-4,14.2-8.1,28.4-12.1,42.5c-1.3,4.7-3.5,6.4-8.4,6.4
		c-29.4,0-58.9,0-88.3,0c-4.7,0-5.3-0.7-4-5.2c4-14.1,8-28.2,12.1-42.2c1.3-4.6,3.4-6.1,8.3-6.1C43.9,62.6,58.7,62.6,73.5,62.6z"/>
</g>
<g>
	<path class="st2" d="M115.2,24.3c-10.3-0.3-19.6,2.2-27.3,9.4c-5.4,5.1-8.6,11.4-8.9,18.9c0,0.4,0.1,0.9-0.5,1
		c-0.5,0.1-0.6-0.5-0.7-0.8c-2.5-8.5-1.2-16.4,3.6-23.7c4.6-6.9,11.2-10.9,19-13.3c4.4-1.3,8.8-1.8,13.4-2.2c0.3,0,0.7,0,1.3-0.1
		c-1.1-1.1-2-2-2.9-2.9c-1.3-1.4-1.3-3.3,0-4.5c1.2-1.3,3.2-1.4,4.5-0.1c3.7,3.6,7.3,7.3,11,11c1.3,1.3,1.2,3.2-0.1,4.5
		c-3.6,3.6-7.2,7.2-10.8,10.8c-1.3,1.3-3.3,1.3-4.6,0.1c-1.3-1.3-1.3-3.2-0.1-4.6c1-1.1,2.1-2.1,3.2-3.1
		C115.3,24.5,115.3,24.4,115.2,24.3z"/>
</g>
</svg>
