<?xml version="1.0" encoding="utf-8"?>
<!-- Generator: Adobe Illustrator 28.2.0, SVG Export Plug-In . SVG Version: 6.00 Build 0)  -->
<svg version="1.1" id="Capa_1" xmlns="http://www.w3.org/2000/svg" xmlns:xlink="http://www.w3.org/1999/xlink" x="0px" y="0px"
	 viewBox="0 0 128 128" style="enable-background:new 0 0 128 128;" xml:space="preserve">
<style type="text/css">
	.st0{fill:#313131;}
	.st1{fill:#0078D4;}
	.st2{fill:#FFFFFF;}
</style>
<g>
	<path class="st0" d="M10.6,68.4c0-15.2,0-30.4,0-45.7c0-8.9,5.2-14.1,14-14.2c4,0,8,0,12,0c1.1,0,1.6-0.1,1.9-1.5
		c1.1-4.7,4.2-7.1,9-7.1C54.3,0,61,0,67.8,0c4.7,0,7.9,2.4,8.8,6.9c0.3,1.6,1,1.7,2.3,1.6c4.2-0.1,8.4-0.1,12.5,0
		c7.6,0.1,13.1,5.5,13.2,13.2c0,2.7,0.1,5.3,0,8c-0.1,2.7-1.9,4.5-4.3,4.5c-2.4,0-4.1-1.9-4.2-4.6c-0.1-2.7,0-5.3,0-8
		c-0.1-2.8-1.7-4.5-4.5-4.5c-4.4-0.1-8.7,0-13.1-0.1c-1.3,0-1.5,0.5-1.8,1.6c-1.1,4.6-4.2,7-9.1,7c-6.7,0-13.3,0-20,0
		c-4.8,0-8-2.4-9-7c-0.3-1.5-1-1.5-2.1-1.5c-4,0-8,0-12,0c-3.8,0-5.3,1.5-5.3,5.4c0,16.9,0,33.8,0,50.7c0,13.6,0,27.2,0,40.9
		c0,4.2,1.4,5.6,5.6,5.6c6.3,0,12.6,0,19,0c3.4,0,5.3,1.6,5.4,4.2c0,2.7-1.9,4.3-5.2,4.3c-6.6,0-13.2,0-19.8,0
		c-8,0-13.4-5.4-13.4-13.4C10.6,99.4,10.6,83.9,10.6,68.4z M57.4,17.1c1.5,0,3,0,4.5,0c6.6,0,6.6,0,6.5-6.7c0-1.5-0.4-1.9-1.9-1.9
		c-4.3,0.1-8.7,0-13.1,0c-6.8,0-6.8,0-6.5,6.9c0.1,1.3,0.4,1.7,1.7,1.6C51.5,17.1,54.4,17.1,57.4,17.1z"/>
	<path class="st1" d="M53.3,83.1c0-11,0-22.1,0-33.1c0-7.1,4.3-11.5,11.4-11.5c13.7,0,27.4,0,41.1,0c7,0,11.5,4.4,11.5,11.5
		c0,22.2,0,44.5,0,66.7c0,7.1-4.5,11.5-11.5,11.5c-13.7,0-27.4,0-41.1,0c-7.1,0-11.4-4.4-11.4-11.5C53.3,105.5,53.3,94.3,53.3,83.1z
		 M61.8,83.4c0,10.9,0,21.7,0,32.6c0,3.4,0.3,3.8,3.6,3.8c13.3,0,26.5,0,39.8,0c3.1,0,3.6-0.5,3.6-3.8c0-21.7,0-43.4,0-65.1
		c0-3.2-0.5-3.8-3.7-3.8c-13.3,0-26.5,0-39.8,0c-3.2,0-3.6,0.4-3.6,3.5C61.8,61.5,61.8,72.4,61.8,83.4z"/>
	<path class="st2" d="M61.8,83.4c0-10.9,0-21.9,0-32.8c0-3.1,0.4-3.5,3.6-3.5c13.3,0,26.5,0,39.8,0c3.1,0,3.7,0.5,3.7,3.8
		c0,21.7,0,43.4,0,65.1c0,3.3-0.5,3.8-3.6,3.8c-13.3,0-26.5,0-39.8,0c-3.3,0-3.6-0.4-3.6-3.8C61.8,105.1,61.8,94.2,61.8,83.4z"/>
</g>
</svg>
