<?xml version="1.0" encoding="utf-8"?>
<!-- Generator: Adobe Illustrator 26.3.1, SVG Export Plug-In . SVG Version: 6.00 Build 0)  -->
<svg version="1.1" id="Capa_1" xmlns="http://www.w3.org/2000/svg" xmlns:xlink="http://www.w3.org/1999/xlink" x="0px" y="0px"
	 viewBox="0 0 128 128" style="enable-background:new 0 0 128 128;" xml:space="preserve">
<style type="text/css">
	.st0{fill:#EAE9E9;}
	.st1{fill:#4C4C4C;}
	.st2{fill:#F6D98D;}
</style>
<g>
	<g>
		<path class="st0" d="M125.4,128c-0.7,0-1.3-0.1-2-0.1c-22.1,0-44.2,0-66.3,0c-0.4,0-0.9,0.2-1.3-0.2c0-1.2,0-2.3,0-3.5
			c-0.3-0.3-0.3-0.8-0.3-1.2c0-0.6,0-1.2,0-1.8c0-0.6,0-1.2,0-1.8c0-0.6,0-1.2,0-1.9c0-0.6,0-1.2,0-1.9c0-0.6,0-1.2,0-1.9
			c0-0.6,0-1.2,0-1.9c0-0.6,0-1.2,0-1.9c0-0.6,0-1.2,0-1.9c0-0.6,0-1.2,0-1.9c0-0.6,0-1.2,0-1.9c0-0.6,0-1.2,0-1.9
			c0-0.6,0-1.2,0-1.9c0-0.6,0-1.2,0-1.9c0-0.6,0-1.2,0-1.9c0-0.6,0-1.2,0-1.9c0-0.6,0-1.2,0-1.9c0-0.6,0-1.2,0-1.9
			c0-0.6,0-1.2,0-1.9c0-0.6,0-1.2,0-1.9c0-0.6,0-1.2,0-1.9c0-0.6,0-1.2,0-1.9c0-0.6,0-1.2,0-1.9c0-0.6,0-1.2,0-1.9
			c0-0.6,0-1.2,0-1.9c0-0.6,0-1.2,0-1.9c0-0.6,0-1.2,0-1.9c0-0.6,0-1.2,0-1.9c0-0.6,0-1.2,0-1.9c0-0.6,0-1.2,0-1.9
			c0-0.6,0-1.2,0-1.9c0-0.6,0-1.2,0-1.9c0-0.6,0-1.2,0-1.9c0-0.6,0-1.2,0-1.9c0-0.6,0-1.2,0-1.9c0-0.6,0-1.2,0-1.9
			c0-0.6,0-1.2,0-1.9c0-0.6,0-1.2,0-1.9c0-0.6,0-1.2,0-1.9c0-0.6,0-1.2,0-1.9c0-0.6,0-1.2,0-1.9c0-0.6,0-1.2,0-1.9
			c0-0.6,0-1.2,0-1.9c0-0.6,0-1.2,0-1.9c0-0.6-0.1-1.3,0.1-1.9c0.2-0.7,0.8-0.8,1.4-0.8c0.6-0.1,1.3-0.1,1.9,0c0.6,0,1.2-0.1,1.9,0
			c0.6,0,1.2-0.1,1.9,0c0.6,0,1.2-0.1,1.9,0c0.6,0,1.2-0.1,1.9,0c0.6,0,1.2-0.1,1.9,0c0.6,0,1.2-0.1,1.9,0c0.6,0,1.2-0.1,1.9,0
			c0.6,0,1.2-0.1,1.9,0c0.6,0,1.2-0.1,1.9,0c0.6,0,1.2-0.1,1.9,0c0.6,0,1.2-0.1,1.9,0c0.6,0,1.2-0.1,1.9,0c0.6,0,1.2-0.1,1.9,0
			c0.6,0,1.2-0.1,1.9,0c0.6,0,1.2-0.1,1.9,0c0.6,0,1.2-0.1,1.9,0c0.6,0,1.2-0.1,1.8,0c0.6,0,1.2-0.1,1.8,0c0.4,0,0.7,0.1,1,0.3
			c3.2,0,6.3,0,9.5,0.1c1.3,0,2.3,1,3.2,1.7c1.1,1,2.2,2.1,3.3,3.2c1,1,2,2.1,2.9,3.2c1.9,2,3.9,3.9,5.8,5.8
			c1.5,1.5,3.1,3.1,4.6,4.6c1,0.9,2.1,1.6,2.9,2.7c0.5,0.6,0.6,1.3,0.6,1.9c0,20.9,0,41.9,0,62.8C126.1,127.5,126.2,128.1,125.4,128
			z"/>
		<path class="st0" d="M2.1,78.4c0.4-1.3,0.1-2.6,0.2-3.8c0-0.7,0-1.3,0-2c-0.4-0.4-0.3-0.9-0.3-1.4c0-0.6-0.1-1.3,0.3-1.8
			c0-4.5,0-9,0-13.4C1.9,55.5,1.9,55,2,54.5c0-0.4,0.1-0.7,0.3-1c0-2.9,0-5.8,0-8.7c0-10.5,0-20.9,0-31.4c0-1,0.2-1.2,1.2-1.2
			c4.9,0.1,9.9,0,14.8,0.1c0.8,0.8,0.9,2.7,0.2,4c-0.6,0.4-1.2,0.3-1.8,0.3c-2.9,0-5.7,0-8.6,0c-1.4,0-1.4,0.1-1.5,1.4
			c0,0.3,0,0.7,0,1c0,31.2,0,62.4,0,93.6c0,2.7-0.2,2.5,2.5,2.5c13.8,0,27.7,0,41.5,0c0.3,0,0.5,0,0.8,0.1c0.2,0,0.3,0.1,0.4,0.3
			c0.3,0.6,0.2,1.3,0.2,1.9c0,0.6,0.1,1.2-0.1,1.8c-0.1,0.1-0.1,0.2-0.2,0.3c-16.2,0-32.4,0-48.5,0c-0.7,0-0.9-0.2-0.8-0.8
			c0.1-0.8,0-1.7,0-2.5c0-11.5,0-22.9,0-34.4c0-0.5,0-0.9,0-1.4C1.8,79.8,1.9,79.1,2.1,78.4z"/>
		<path class="st0" d="M18.5,16.2c0-1.3,0.3-2.6-0.2-3.9c4.7,0,9.5,0,14.2,0c0.9,0,1.1-0.2,1.1-1.1c0.1-1.8,0.8-3.3,1.9-4.8
			c0.8-1.1,1.5-2.2,2.5-3c0.8-0.6,1.6-1.3,2.5-1.8C43.2,0,46.1-0.1,49.1,0c2.6,0.1,4.9,1.3,7,2.7c2.8,1.8,4.2,4.5,5.1,7.5
			c0.2,0.6,0.8,1.1,0.7,1.9c0,0.4,0.6,0.2,0.9,0.2c4.1,0,8.3,0,12.4,0c0.4,0,0.8,0,1.3,0c0.8,1.3,0.3,2.6,0.4,3.9
			c0.1,2.7,0.1,5.4,0,8.1c0.1,1.1,0.1,2.2,0,3.2c-0.1,1.1-0.4,1.4-1.5,1.5c-0.5,0-0.9,0-1.4,0c-17.7,0-35.3,0-53,0
			c-2.8,0-2.9-0.1-2.9-2.9c0-0.6,0-1.2,0.1-1.8c-0.1-2.3,0-4.7,0-7C18.1,17,18.2,16.6,18.5,16.2z"/>
		<path class="st0" d="M76.5,16.2c0-1.3,0-2.6,0-3.9c5.2,0,10.4,0,15.6-0.1c1,0,0.8,0.5,0.8,1.1c0,6.5,0,13,0,19.6
			c0,1.3,0,2.6,0,3.9c-0.2,0.2-0.4,0.3-0.7,0.3c-0.6,0.1-1.2,0-1.9,0c-0.5,0-1,0-1.4-0.4c-0.4-0.6-0.3-1.3-0.3-1.9
			c0-5.5,0-11,0-16.5c0-1.7,0-1.7-1.8-1.7c-2.9,0-5.7,0-8.6,0C77.7,16.6,77,16.7,76.5,16.2z"/>
		<path class="st1" d="M60,84.6c0-12.7,0-25.3,0-38c0-0.9,0.2-1.2,1.2-1.2c13,0,26,0,38.9,0c0.9,0,1.2,0.2,1.2,1.2
			c-0.1,6.1,0,12.1,0,18.2c0,0.9,0.2,1.1,1.1,1.1c6.2,0,12.4,0,18.5,0c0.9,0,1.1,0.2,1.1,1.1c0,18.6,0,37.2,0,55.8
			c0,0.9-0.2,1.1-1.1,1.1c-19.9,0-39.9,0-59.8,0c-0.9,0-1.1-0.2-1.1-1.1C60,110,60,97.3,60,84.6z"/>
		<path class="st1" d="M118.8,61.4c-4.3,0.7-8.6,0.3-12.9,0.5c-0.6,0-0.7-0.2-0.7-0.7c0-4.1,0-8.2,0-12.3c0-0.2-0.2-0.6,0.3-0.6
			c0.4-0.1,0.3,0.3,0.5,0.5c0.9,1,1.8,2,2.8,2.9c1.5,1.3,2.8,2.8,4.2,4.2c1.4,1.5,2.8,3,4.4,4.3C117.8,60.5,118.2,61,118.8,61.4z"/>
		<path class="st2" d="M18.5,16.2c0,2.7,0,5.4,0,8.1c-0.5,0.8-1.3,0.6-2,0.6c-1.3,0.1-1.4,0.2-1.5,1.5c0,0.4,0,0.8,0,1.2
			c0,25.6,0,51.2,0,76.8c0,2.6-0.2,2.5,2.5,2.5c10.7,0,21.3,0,32,0c0.7,0,1.5-0.1,2.2,0.3c0.3,0.3,0.4,0.6,0.4,1
			c0.1,0.6,0.1,1.3,0,1.9c0,0.6,0.1,1.2,0,1.9c0.1,0.6,0,1.3,0,1.9c0,0.6,0.1,1.2-0.4,1.6c-0.4,0.3-0.9,0.2-1.3,0.2
			c-14.2,0-28.5,0-42.7,0c-1.1,0-1.3-0.3-1.3-1.3c0-32.3,0-64.6,0-96.8c0-1,0.2-1.3,1.3-1.3C11.1,16.3,14.8,16.2,18.5,16.2z"/>
		<path class="st1" d="M51.7,107.3c-11.8,0-23.6,0-35.3,0c-1.8,0-1.8,0-1.8-1.8c0-26.3,0-52.7,0-79c0-2,0-2,2-2
			c0.6,0,1.3,0.2,1.9-0.2c0,1.2,0.1,2.4,0,3.6c0,0.7,0.2,0.9,0.8,0.8c0.2,0,0.3,0,0.5,0c18.5,0,36.9,0,55.4,0c1,0,1.4-0.2,1.3-1.3
			c-0.1-1,0-2.1,0-3.1c1.2-0.4,2.4-0.2,3.5-0.1c0.8,0.1,1,0.7,1,1.3c0.1,1.4,0,2.8,0,4.3c0,2.2,0.2,4.4-0.1,6.7
			c-0.2,0.8-1.2,0.5-1.5,1.2c-0.1,0.1-0.2,0.2-0.3,0.2c-0.5,0.2-1.1,0.2-1.6,0c-0.1,0-0.2-0.1-0.3-0.2c-0.7-0.8-0.9-0.8-1.6-0.1
			c-0.1,0.1-0.2,0.2-0.3,0.2c-0.5,0.2-1,0.2-1.6,0c-0.1,0-0.2-0.1-0.3-0.2C72.9,37,72.7,37,72,37.8c-0.1,0.1-0.2,0.2-0.3,0.2
			c-0.5,0.2-1,0.2-1.6,0c-0.1,0-0.2-0.1-0.3-0.2C69.2,37,69,37,68.3,37.8c-0.1,0.1-0.2,0.2-0.3,0.2c-0.5,0.2-1,0.2-1.6,0
			c-0.1,0-0.2-0.1-0.3-0.2c-0.7-0.8-0.9-0.8-1.6-0.1c-0.1,0.1-0.2,0.2-0.3,0.2c-0.5,0.2-1,0.2-1.6,0c-0.1,0-0.2-0.1-0.3-0.2
			c-0.7-0.8-0.9-0.8-1.6-0.1c-0.1,0.1-0.2,0.2-0.3,0.2c-0.5,0.2-1,0.2-1.6,0c-0.1,0-0.2-0.1-0.3-0.2c-0.8-0.8-0.9-0.8-1.7,0
			C57,37.9,56.9,38,56.8,38c-0.5,0.1-1.1,0.2-1.6-0.1c-0.9-1-1.1-1-2,0c-1.1,0.2-1.4,0.9-1.2,1.9c0.1,0.6,0,1.2,0,1.7
			c0.1,0.6,0,1.2,0,1.8c0,0.6,0.1,1.2,0,1.9c0,0.6,0.1,1.2,0,1.9c0,0.6,0.1,1.2,0,1.9c0,0.6,0.1,1.2,0,1.9c0,0.6,0.1,1.2,0,1.9
			c0,0.6,0.1,1.2,0,1.9c0,0.6,0.1,1.2,0,1.9c0,0.6,0.1,1.2,0,1.9c0,0.6,0.1,1.2,0,1.9c0,0.6,0.1,1.2,0,1.9c0,0.6,0.1,1.2,0,1.9
			c0,0.6,0.1,1.2,0,1.9c0,0.6,0.1,1.2,0,1.9c0,0.6,0.1,1.2,0,1.9c0,0.6,0.1,1.2,0,1.9c0,0.6,0.1,1.2,0,1.9c0,0.6,0.1,1.2,0,1.9
			c0,0.6,0.1,1.2,0,1.9c0,0.6,0.1,1.2,0,1.9c0,0.6,0.1,1.2,0,1.9c0,0.6,0.1,1.2,0,1.9c0,0.6,0.1,1.2,0,1.9c0,0.6,0.1,1.2,0,1.9
			c0,0.6,0.1,1.2,0,1.9c0,0.6,0.1,1.2,0,1.9c0,0.6,0.1,1.2,0,1.9c0,0.6,0.1,1.2,0,1.9c0,0.6,0.1,1.2,0,1.9c0,0.6,0.1,1.2,0,1.9
			c0,0.6,0.1,1.2,0,1.9c0,0.6,0.1,1.2,0,1.9c0,0.6,0.1,1.2,0,1.9c0,0.6,0.1,1.2,0,1.9c0,0.6,0.1,1.2,0,1.9
			C52,106.8,52,107.1,51.7,107.3z"/>
		<path class="st1" d="M47.6,24.6c-8,0-15.9,0-23.9,0c-0.9,0-1.1-0.2-1.1-1.1c0.1-2.1,0.1-4.2,0-6.4c0-0.8,0.2-0.9,1-0.9
			c3.9,0,7.9,0,11.8,0c1.3,0,1.8-0.5,1.8-1.9c0-0.8,0-1.6,0.2-2.4c0.6-2.5,1.9-4.4,4-6c2.7-2,5.6-2.6,8.7-1.7c2,0.6,4.4,1.3,5.2,3.8
			c0.2,0.5,0.8,0.9,1.2,1.4c0.8,1,0.8,2.1,0.8,3.1c0.1,1,0.2,2,0.3,3c0,0.7,0.8,0.6,1.4,0.6c2,0,4,0,6,0c2.2,0,4.3,0,6.5,0
			c0.8,0,1,0.2,0.9,1c0,2.1-0.1,4.2,0,6.4c0,0.9-0.3,1.1-1.1,1C63.5,24.6,55.6,24.6,47.6,24.6z"/>
		<path class="st2" d="M80.7,36.9c0-3.7,0-7.5,0-11.2c0-0.8-0.2-1.1-1.1-1.1c-1,0-2.1,0.2-3.1-0.2c0-2.7,0-5.4,0-8.1
			c3.8,0,7.6,0,11.3,0c0.9,0,1.2,0.3,1.2,1.2c0,6.5,0,13,0,19.5c-0.1,0.2-0.3,0.3-0.5,0.3c-0.6,0.1-1.2,0.1-1.8,0.1
			c-0.6,0-1.2,0-1.8,0c-0.6,0-1.2,0.1-1.8,0c-0.6,0-1.2,0.1-1.8,0C81,37.1,80.8,37,80.7,36.9z"/>
	</g>
</g>
</svg>
