<?xml version="1.0" encoding="utf-8"?>
<!-- Generator: Adobe Illustrator 26.3.1, SVG Export Plug-In . SVG Version: 6.00 Build 0)  -->
<svg version="1.1" id="Capa_1" xmlns="http://www.w3.org/2000/svg" xmlns:xlink="http://www.w3.org/1999/xlink" x="0px" y="0px"
	 viewBox="0 0 128 128" style="enable-background:new 0 0 128 128;" xml:space="preserve">
<style type="text/css">
	.st0{fill:#EAE9E9;}
	.st1{fill:#4C4C4C;}
	.st2{fill:#49B7ED;}
	.st3{fill:#B0B0AF;}
</style>
<g>
	<path class="st0" d="M39.5,1.9c0.4,0,0.8,0.1,1.2,0.1C59,2,77.4,2,95.8,2c0.4,0,0.8-0.1,1.2-0.1c1.2,0,2.3,0.1,3.5,0.1
		c1.1-0.1,1.4,0.3,1.4,1.4c0,10.7,0,21.3,0,32c0,2.4,0.1,4.8,0,7.3c0,1.1,0.3,1.5,1.4,1.5c7.3-0.1,14.6,0,21.9,0
		c1.9,0,1.9,0,1.9,1.9c0,13.6,0,27.2,0,40.8c0,4.9,0,9.8,0,14.8c0,1.1-0.3,1.4-1.4,1.4c-7.5,0-14.9,0-22.4,0c-1.1,0-1.5,0.3-1.5,1.4
		c0.1,7.5,0,14.9,0,22.4c0,1.1-0.3,1.4-1.4,1.4c-24.3,0-48.5,0-72.8,0c-1.1,0-1.4-0.3-1.4-1.4c0.1-7.5,0-15,0.1-22.5
		c0-1-0.3-1.3-1.3-1.3c-7.5,0-15,0-22.5,0c-1.1,0-1.4-0.3-1.4-1.4c0-18.3,0-36.5,0-54.8C1,44,1,44,3.6,44c7,0,14,0,21,0
		c1.3,0,1.7-0.2,1.7-1.6c-0.1-13,0-26-0.1-39c0-1.2,0.4-1.5,1.5-1.5C31.6,2,35.5,1.9,39.5,1.9z M64.1,48.1c-19.2,0-38.3,0-57.5,0
		c-0.9,0-1.4,0.1-1.4,1.2c0,16,0,32,0,48.1c0,1,0.3,1.2,1.2,1.2c6.2-0.1,12.4-0.1,18.6-0.1c0.9,0,1.2-0.3,1.2-1.2
		c0-4.7,0-9.5,0-14.2c0-0.9,0.2-1.4,1.3-1.4c24.3,0,48.7,0,73,0c1,0,1.3,0.2,1.2,1.2c0,4.7,0,9.5,0,14.2c0,1.1,0.3,1.4,1.4,1.4
		c6.1-0.1,12.2-0.1,18.3-0.1c1.2,0,1.5-0.4,1.5-1.5c0-15.8,0-31.5,0-47.3c0-1.4-0.4-1.6-1.7-1.6C102.2,48.1,83.1,48.1,64.1,48.1z
		 M63.9,6.2c-10.7,0-21.5,0-32.2,0c-1.1,0-1.3,0.3-1.3,1.4c0,11.7,0,23.4,0,35.1c0,1.1,0.3,1.4,1.4,1.4c21.5,0,43,0,64.5,0
		c1.2,0,1.4-0.4,1.4-1.4c0-11.7,0-23.3,0-35c0-1.1-0.2-1.4-1.4-1.4C85.4,6.2,74.7,6.2,63.9,6.2z M64,123.8c10.7,0,21.5,0,32.2,0
		c1,0,1.3-0.2,1.3-1.3c0-11.7,0-23.5,0-35.2c0-1.1-0.3-1.3-1.4-1.3c-21.5,0-42.9,0-64.4,0c-1.3,0-1.5,0.4-1.5,1.5
		c0,11.6,0,23.1,0,34.7c0,1.2,0.3,1.6,1.5,1.6C42.6,123.8,53.3,123.8,64,123.8z"/>
	<path class="st1" d="M64.1,48.1c19,0,38.1,0,57.1,0c1.3,0,1.7,0.3,1.7,1.6c-0.1,15.8-0.1,31.5,0,47.3c0,1.2-0.3,1.5-1.5,1.5
		c-6.1,0-12.2,0-18.3,0.1c-1.1,0-1.4-0.3-1.4-1.4c0.1-4.7,0-9.5,0-14.2c0-1-0.3-1.2-1.2-1.2c-24.3,0-48.7,0-73,0
		c-1.1,0-1.3,0.4-1.3,1.4c0,4.7,0,9.5,0,14.2c0,0.9-0.2,1.2-1.2,1.2c-6.2,0-12.4,0-18.6,0.1c-1,0-1.2-0.2-1.2-1.2c0-16,0-32,0-48.1
		c0-1.2,0.5-1.2,1.4-1.2C25.7,48.1,44.9,48.1,64.1,48.1z"/>
	<path class="st1" d="M63.9,6.2c10.7,0,21.5,0,32.2,0c1.2,0,1.4,0.3,1.4,1.4c0,11.7,0,23.3,0,35c0,1.1-0.2,1.5-1.4,1.4
		c-21.5,0-43,0-64.5,0c-1.1,0-1.4-0.3-1.4-1.4c0-11.7,0-23.4,0-35.1c0-1.1,0.2-1.4,1.3-1.4C42.4,6.2,53.2,6.2,63.9,6.2z"/>
	<path class="st2" d="M26,61.3c0,1.7,0,3.5,0,5.2c0,0.8-0.2,1.2-1.1,1.1c-3.5,0-7,0-10.5,0c-0.8,0-1.1-0.2-1.1-1c0-3.5,0-7.1,0-10.6
		c0-0.9,0.3-1.1,1.2-1.1c3.4,0,6.9,0,10.3,0c0.9,0,1.2,0.4,1.1,1.2C26,57.9,26,59.6,26,61.3z"/>
	<path class="st3" d="M64,106.9c-7.9,0-15.8,0-23.7,0c-1.3,0-1.5-0.4-1.4-1.5c0.2-2.7,0.1-2.7,2.9-2.7c15.3,0,30.6,0,46,0
		c1.3,0,1.6,0.3,1.5,1.6c-0.2,2.6-0.1,2.6-2.7,2.6C79.1,106.9,71.6,106.9,64,106.9z"/>
	<path class="st3" d="M64.2,94.4c7.9,0,15.9,0,23.8,0c1,0,1.3,0.3,1.3,1.3c0,2.8,0,2.8-2.9,2.8c-15.4,0-30.7,0-46.1,0
		c-1.1,0-1.4-0.2-1.4-1.4c0.1-2.7,0.1-2.7,2.8-2.7C49.3,94.4,56.7,94.4,64.2,94.4z"/>
	<path class="st3" d="M63.9,115.4c-7.9,0-15.8,0-23.7,0c-1,0-1.3-0.2-1.3-1.3c0.1-2.9,0.1-2.9,2.9-2.9c15.4,0,30.7,0,46.1,0
		c1.2,0,1.5,0.3,1.4,1.4c-0.2,2.7-0.1,2.7-2.8,2.7C79,115.4,71.4,115.4,63.9,115.4z"/>
</g>
</svg>
