<?xml version="1.0" encoding="utf-8"?>
<!-- Generator: Adobe Illustrator 28.2.0, SVG Export Plug-In . SVG Version: 6.00 Build 0)  -->
<svg version="1.1" id="Capa_1" xmlns="http://www.w3.org/2000/svg" xmlns:xlink="http://www.w3.org/1999/xlink" x="0px" y="0px"
	 viewBox="0 0 128 128" style="enable-background:new 0 0 128 128;" xml:space="preserve">
<style type="text/css">
	.st0{fill:#DFDFDF;}
	.st1{fill:#5AACFF;}
</style>
<g>
	<path class="st0" d="M64,128c-9.7,0-19.5,0-29.2,0c-6.5,0-9.2-2.7-9.2-9.2c0-5.3-0.1-10.6,0-15.9c0-1.8-0.3-2.4-2.2-2.3
		c-3.3,0.2-6.6,0.1-9.9,0c-6.2-0.1-10.9-4.3-11.2-10.5C2,83.5,2.1,76.9,2.1,70.3c0-8.7,0-17.4,0-26.1c0-8.4,4.5-12.8,12.9-12.9
		c2.8,0,5.6-0.1,8.4,0c1.7,0.1,2.2-0.4,2.2-2.1c-0.1-6.7-0.1-13.4,0-20.1c0-6.3,2.8-9.1,9.1-9.1c19.6,0,39.2,0,58.7,0
		c6.3,0,9,2.8,9.1,9.1c0,6.4,0.2,12.7-0.1,19.1c-0.1,2.8,0.8,3.3,3.3,3.2c3.5-0.1,7-0.3,10.4,0.2c5.3,0.7,9.3,4.6,9.6,10
		c0.3,5.2,0.2,10.4,0.2,15.7c0,10.2,0,20.4,0,30.5c0,8.4-4.5,12.9-12.9,12.9c-3,0-5.9,0.1-8.9,0c-1.4,0-1.8,0.4-1.7,1.8
		c0.1,5.6,0.1,11.1,0,16.7c0,6.2-2.8,9-8.9,9C83.7,128,73.9,128,64,128z M64,37.8c-16.5,0-33.1,0-49.6,0c-4,0-5.8,1.7-5.8,5.4
		c0,15.2,0,30.5,0,45.7c0,3.5,1.9,5.3,5.3,5.4c3.1,0.1,6.3-0.1,9.4,0.1c1.8,0.1,2.3-0.5,2.3-2.3c-0.1-8.1,0-16.2,0-24.3
		c0-4.1,0.9-4.9,4.9-4.9c22.4,0,44.7,0,67.1,0c4.1,0,4.8,0.8,4.8,4.9c0,8.1,0.1,16.2,0,24.3c0,1.9,0.6,2.4,2.3,2.3
		c2.9-0.1,5.7,0,8.6,0c4.4,0,6.1-1.7,6.1-6.2c0-14.5,0-29.1,0-43.6c0-5.2-1.4-6.7-6.6-6.7C96.5,37.8,80.3,37.8,64,37.8z M64.3,69.2
		c-10,0-20,0-30,0c-1.8,0-2.3,0.5-2.3,2.3c0.1,15.8,0.1,31.7,0,47.5c0,2,0.5,2.7,2.6,2.7c19.6-0.1,39.1-0.1,58.7,0
		c2,0,2.7-0.5,2.7-2.6c-0.1-15.8-0.1-31.7,0-47.5c0-2.1-0.7-2.3-2.5-2.3C83.8,69.2,74,69.2,64.3,69.2z M63.7,31.3c10,0,20-0.1,30,0
		c1.9,0,2.3-0.5,2.3-2.3c-0.1-6.7-0.1-13.4,0-20.1c0-1.9-0.6-2.5-2.5-2.5c-19.7,0.1-39.3,0.1-59,0C32.6,6.4,32,7,32,8.9
		c0.1,6.6,0.1,13.2,0,19.8c0,2,0.4,2.6,2.5,2.6C44.2,31.2,54,31.3,63.7,31.3z"/>
	<path class="st0" d="M17.8,50.1c0.2-1.9,1.2-3,3.2-3c2,0,3,1.2,3.1,3.1c0.1,1.7-1.7,3.4-3.4,3.2C18.9,53.1,17.9,52,17.8,50.1z"/>
	<path class="st1" d="M64.3,106.7c5.7,0,11.3,0,17,0c2.6,0,4.3,1.3,4.1,3.3c-0.3,2.3-1.8,3.2-4,3.1c-11.6,0-23.1,0-34.7,0
		c-2.4,0-4-1.3-4-3.2c0-1.9,1.4-3.2,3.9-3.2C52.5,106.7,58.4,106.7,64.3,106.7z"/>
	<path class="st1" d="M64,98.6c-5.7,0-11.5,0-17.2,0c-2.7,0-4.2-1.2-4.2-3.2c0-2,1.6-3.2,4.3-3.2c11.4,0,22.8,0,34.2,0
		c2.7,0,4.2,1.2,4.3,3.1c0.1,2-1.5,3.3-4.4,3.3C75.3,98.6,69.7,98.6,64,98.6z"/>
	<path class="st1" d="M63.9,84.1c-5.7,0-11.3,0-17,0c-2.7,0-4.3-1.2-4.3-3.1c0-2,1.7-3.3,4.4-3.3c11.3,0,22.6,0,33.9,0
		c2.8,0,4.5,1.3,4.4,3.3c0,2-1.6,3.1-4.5,3.1C75.2,84.1,69.5,84.1,63.9,84.1z"/>
</g>
</svg>
