<?xml version="1.0" encoding="utf-8"?>
<!-- Generator: Adobe Illustrator 26.3.1, SVG Export Plug-In . SVG Version: 6.00 Build 0)  -->
<svg version="1.1" id="Capa_1" xmlns="http://www.w3.org/2000/svg" xmlns:xlink="http://www.w3.org/1999/xlink" x="0px" y="0px"
	 viewBox="0 0 128 128" style="enable-background:new 0 0 128 128;" xml:space="preserve">
<style type="text/css">
	.st0{fill:#F48C77;}
	.st1{fill:#EAE9E9;}
	.st2{fill:#997288;}
	.st3{fill:#49B7ED;}
</style>
<g>
	<path class="st0" d="M88.5,97.7c-0.2,4.9,0.4,9.7,2.9,14.1c2.9,5.3,7.3,8.5,13.2,9.5c5.2,0.9,10.2,0.3,14.8-2.3
		c1.3-0.7,2.4-1.7,3.5-2.6c0.8-0.7,1.4-0.6,2.1,0.3c1.7,2.1,1.7,2.2-0.5,3.8c-8.1,5.9-17,7-26.2,3.1c-6.8-2.9-11-8.4-12.9-15.6
		c-1.7-6.5-1.7-13,0.5-19.4c1.2-3.8,3.3-7.1,6.2-9.9c5.1-5,11.4-6.7,18.4-6.5c5.1,0.1,9.5,2.2,13.7,4.7c0.7,0.4,0.9,1.1,0.8,1.8
		c-0.1,1.1-0.9,1.8-1.8,2.3c-0.8,0.4-1.2-0.4-1.7-0.8c-3.1-2.5-6.8-3.3-10.6-3.6c-6.3-0.4-12.2,0.8-16.6,5.7
		c-3.6,4-5.6,8.7-5.7,14.1C88.5,97,88.5,97.4,88.5,97.7z"/>
	<path class="st1" d="M26.4,96.7c-0.9-0.9-1.7-1.5-2.5-2.3c-2.8-2.8-5.5-5.6-8.3-8.3c-0.7-0.7-0.8-1.2,0-1.9
		c0.2-0.1,0.3-0.3,0.5-0.4c1.5-1.4,1.4-1.3,2.8,0c5.1,4.4,9.5,9.5,14.4,14.1c1,0.9,0.9,1.4,0,2.3c-4.8,4.6-9.4,9.3-14.2,14
		c-1.6,1.6-1.6,1.6-3.2,0c-1.6-1.6-1.4-1.2,0-2.6c3.1-3.1,6.3-6.1,9.4-9.2c0.3-0.3,0.6-0.4,0.7-0.9c-0.4-0.4-0.9-0.3-1.3-0.3
		c-4,0-7.9-0.1-11.9,0c-3.8,0-6.9-1.1-9.2-4.3c-1.1-1.6-1.8-3.3-1.8-5.2c0-6.9,0-13.7-0.1-20.6c0-0.7,0.3-0.9,1-0.9
		C6,70,6,70,6,73.1c0,5.6,0,11.2,0,16.8c0,1.2,0.1,2.5,0.6,3.6c0.9,2,2.5,3.2,4.6,3.3c4.8,0.3,9.5,0.2,14.3,0
		C25.7,96.8,25.9,96.8,26.4,96.7z"/>
	<path class="st2" d="M55.4,51.6c0.2,0.4,0.1,0.7,0,1.1C55.2,52.3,55.2,52,55.4,51.6z"/>
	<path class="st3" d="M87,32.9c-1.4-1.8-3.1-3-5-4.1c-0.7-0.4-1-0.7-0.1-1.3c2.4-1.5,3.7-3.7,4.7-6.2C89.1,15.3,87,5.8,78,3.2
		c-2.5-0.7-5.2-1.1-7.8-1.1c-4.4,0-8.8,0.1-13.3,0c-1.4,0-1.6,0.4-1.6,1.7c0,12.3,0,24.6,0,37c0,3.6,0,7.3,0.1,10.9
		c0,0.4,0,0.7,0,1.1c0,0.7,0,1.4,0,2c0,0.7,0.2,1,0.9,1c6-0.1,11.9,0.3,17.9-0.2c4.2-0.4,8.2-1.2,11.4-4.4c1.7-1.7,2.9-3.5,3.5-5.8
		C90.3,40.9,89.9,36.7,87,32.9z M59.4,25.5c0.1-3,0-6,0-9.1c0,0,0.1,0,0.1,0c0-3,0-6,0-9.1c0-0.5-0.1-1.2,0.8-1.1
		c4.9,0.1,9.9-0.4,14.8,0.5c6.1,1.1,8.7,5.3,8.2,10.3c-0.4,4.9-2.7,7.6-8.4,9.3c-1.6,0.5-3.3,0.5-4.9,0.5c-3.1,0-6.1,0-9.2,0.1
		C59.6,26.9,59.4,26.5,59.4,25.5z M85.1,43.8c-0.2,0.6,0,1.2-0.3,1.8c-1.7,3.4-4.7,5-8.3,5.3c-2.6,0.2-5.3,0-7.9,0c-2.7,0-5.4,0-8,0
		c-0.8,0-1.1-0.1-1.1-1c0.1-6,0.1-12,0.1-18c0-0.5,0-1,0.7-1c5.1,0.1,10.1-0.4,15.2,0.3c3.7,0.5,6.9,1.8,8.9,5.2
		C85.8,38.8,86.1,41.3,85.1,43.8z"/>
	<path class="st1" d="M48.6,54.2c-1-1.3-1.3-2.8-1.8-4.2c-4.5-10.9-9-21.8-13.5-32.7c-1.9-4.6-3.8-9.3-5.7-13.9
		c-0.4-1-1.2-1.3-2.1-1.3c-0.9,0-1.6,0.1-2,1.1c-1.4,3.6-2.9,7.3-4.4,10.9c-4.3,10.3-8.7,20.7-12.8,31.1c-1.1,2.8-2.3,5.5-3.4,8.2
		C2,55,2,55,3.6,55.5c0.3,0.1,0.6,0.2,0.8,0.4c1.1,0.8,1.5,0.4,2-0.7c2-5,4.1-9.9,6-14.9c0.3-0.9,0.8-1.2,1.7-1.1
		c3.8,0,7.6,0,11.4,0c3.8,0,7.6,0,11.4,0c0.6,0,1.2,0,1.4,0.7c0.8,2,1.5,4,2.3,6c1.4,3.3,2.8,6.6,4.1,9.9c0.2,0.4,0.4,0.8,0.9,0.5
		c0.8-0.4,1.6-0.7,2.4-1.1C48.5,55,49,54.7,48.6,54.2z M34.5,35.1c-6.3-0.1-12.5,0.2-18.8-0.1C14.8,35,14.6,35,15,34
		c2-4.6,3.8-9.2,5.7-13.8c1.3-3.2,2.6-6.4,4-9.5c0.2-0.4,0.3-0.9,0.8-1.3c1.5,3.6,2.9,7.2,4.3,10.7c1.9,4.5,3.8,9,5.6,13.6
		C36.1,35,36,35.1,34.5,35.1z"/>
	<path class="st1" d="M82.7,122.8c-0.6-1.5-1.3-3.1-1.9-4.6C74.6,103.5,68.4,88.8,62.3,74c-0.5-1.3-1.2-1.9-2.3-1.8
		c-1.4-0.1-1.5,0-2,1.2c-0.6,1.4-1,2.8-1.6,4.2c-1.9,4.2-3.7,8.5-5.5,12.8c-4.3,10.4-8.7,20.7-13,31.1c-1.3,3.1-1.2,3.1,2,4
		c0.7,0.2,0.9,0,1.1-0.6c1.7-4.9,4-9.6,5.9-14.4c0.4-0.9,0.8-1.2,1.8-1.2c7.5,0,15.1,0,22.6,0c1,0,1.5,0.3,1.9,1.3
		c1.7,4.3,3.5,8.6,5.3,12.9c1,2.3,1,2.3,3.4,1.5C83.2,124.5,83.3,124.2,82.7,122.8z M69.5,105.2c-6.3,0-12.7,0-19,0
		c-1.3,0-1.4-0.2-0.9-1.4c2.6-6.1,5.3-12.3,7.8-18.5c0.8-1.9,1.5-3.9,2.6-6c0.8,1.8,1.5,3.3,2.1,4.9c2.6,6.6,5.3,13.1,8.2,19.5
		C70.9,105,70.8,105.2,69.5,105.2z"/>
</g>
</svg>
