<?xml version="1.0" encoding="utf-8"?>
<!-- Generator: Adobe Illustrator 28.2.0, SVG Export Plug-In . SVG Version: 6.00 Build 0)  -->
<svg version="1.1" id="Capa_1" xmlns="http://www.w3.org/2000/svg" xmlns:xlink="http://www.w3.org/1999/xlink" x="0px" y="0px"
	 viewBox="0 0 128 128" style="enable-background:new 0 0 128 128;" xml:space="preserve">
<style type="text/css">
	.st0{fill:#5AACFF;}
	.st1{fill:#DFDFDF;}
</style>
<g>
	<path class="st0" d="M96.9,29.8c-15.9,0-31.9,0-47.8,0s-31.8,0-47.8,0C0.2,29.8,0,30,0,31.1C0,57.5,0,84-0.1,110.5
		c0,1,0.3,1.8,1,2.4c3.4,2.9,6.4,6.2,9.7,9.3c1.3,1.2,2.8,2.4,3.9,3.8s2.4,2,4.1,2c26.1,0,52.2,0,78.3,0c1.1,0,1.3-0.2,1.3-1.3
		c0-31.9,0-63.7,0-95.6C98.2,30,98,29.8,96.9,29.8z M17.1,35.4c0-1.1,0.3-1.3,1.3-1.3c10.3,0.1,20.6,0,30.9,0c10.2,0,20.4,0,30.6,0
		c1.1,0,1.3,0.3,1.3,1.3c0,10.5,0,21,0,31.5c0,1.1-0.3,1.3-1.3,1.3c-20.5,0-41,0-61.5,0c-1.1,0-1.3-0.3-1.3-1.3
		C17.1,56.4,17.1,45.9,17.1,35.4z M68.3,122.5c0,1-0.2,1.2-1.2,1.2c-12,0-23.9,0-35.9,0c-1,0-1.2-0.2-1.2-1.2c0-9.1,0-18.3,0-27.4
		c0-1,0.2-1.2,1.2-1.2c6,0,12,0,17.9,0c6,0,12,0,18,0c1,0,1.2,0.2,1.2,1.2C68.3,104.2,68.3,113.4,68.3,122.5z M93.9,78.9
		c0,14.5,0,28.9,0,43.4c0,1-0.2,1.3-1.2,1.3c-6.2-0.1-12.5-0.1-18.7,0c-1,0-1.3-0.2-1.3-1.3c0-10.6,0-21.1,0.1-31.7
		c0-1-0.3-1.3-1.3-1.3c-14.9,0-29.7,0-44.6,0c-1,0-1.2,0.3-1.2,1.3c0,10.5,0,20.9,0.1,31.4c0,1.3-0.4,1.6-1.6,1.5c-1-0.1-2-0.1-3,0
		c-2.2,0.3-3.8-0.7-5.3-2.2c-1.4-1.4-2.7-3-4.2-4.3c-1.9-1.8-3.7-3.8-5.7-5.5c-1.2-1-1.5-2.2-1.5-3.7c0-24.1,0-48.2,0-72.2
		c0-1.1,0.2-1.6,1.4-1.5c1.9,0.1,3.9,0.1,5.8,0c1.1-0.1,1.3,0.2,1.3,1.3c0,11.8,0,23.7-0.1,35.5c0,1.2,0.3,1.5,1.5,1.5
		c23.2,0,46.3,0,69.5,0c1.2,0,1.5-0.3,1.5-1.5c0-11.8,0-23.7-0.1-35.5c0-1.1,0.3-1.4,1.4-1.3c1.9,0.1,3.8,0.1,5.7,0
		c1.2-0.1,1.6,0.2,1.6,1.5C93.8,50,93.9,64.5,93.9,78.9z"/>
	<path class="st1" d="M126.7,0C110.8,0,94.9,0,79,0S47.1,0,31.2,0.1c-1,0-1.2,0.2-1.2,1.2c0,7.1,0,14.3,0,21.4c0,3,0,2.9,3,3
		c1.1,0.1,1.2-0.3,1.2-1.2c0-6.4,0-12.7,0-19.1c0-0.9,0.2-1.2,1.1-1.2c2.1,0.1,4.2,0.1,6.3,0c0.9-0.1,1.1,0.2,1.1,1.1
		c0,5.7,0,11.5,0,17.2c0,1-0.4,2.4,0.2,3c0.7,0.6,2,0.1,3,0.2c1.1,0.1,1.2-0.4,1.2-1.3c0-6.4,0-12.7,0-19.1c0-0.8,0.1-1.1,1-1.1
		c2.2,0,4.3,0,6.5,0c18.4,0,36.8,0,55.2,0c0.9,0,1.3,0.2,1.2,1.2c-0.1,1.8,0,3.5,0,5.2c0,8.9,0,17.7,0,26.6c0,1-0.2,1.3-1.2,1.2
		c-1.3-0.1-2.7,0-4,0c-1.1,0-2.5-0.3-3.1,0.2c-0.8,0.6-0.2,2.1-0.3,3.2c-0.1,0.9,0.3,1,1.1,1c3.4-0.1,6.9-0.1,10.3,0
		c1.2,0,1.5-0.2,1.5-1.5c-0.1-11.9-0.1-23.9-0.1-35.8c0-1,0.3-1.3,1.3-1.3c2.1,0.1,4.1,0.1,6.2,0c0.9-0.1,1.1,0.2,1.1,1.1
		c0,29.2,0,58.3,0,87.5c0,0.9-0.2,1.1-1.1,1.1c-5.8,0-11.6,0-17.4,0c-2.9,0-2.9,0-2.9,2.9c0,0.9,0.2,1.2,1.2,1.2
		c7.7,0,15.4-0.1,23.1,0c1,0,1.3-0.2,1.3-1.3c0-31.8,0-63.6,0-95.4C128,0.3,127.8,0,126.7,0z"/>
	<path class="st0" d="M39.3,102.4c-0.6,0-0.8,0.2-0.8,0.8c0,1.8,0,3.7,0,5.5c0,1.1,0,2.2,0.1,3.2c0,3.2,0,3.1,3.2,3.1
		c0.7,0,0.9-0.2,0.9-0.9c0-2.8,0-5.7,0-8.6C42.7,102.2,42.7,102.3,39.3,102.4z"/>
</g>
</svg>
