<?xml version="1.0" encoding="utf-8"?>
<!-- Generator: Adobe Illustrator 26.3.1, SVG Export Plug-In . SVG Version: 6.00 Build 0)  -->
<svg version="1.1" id="Capa_1" xmlns="http://www.w3.org/2000/svg" xmlns:xlink="http://www.w3.org/1999/xlink" x="0px" y="0px"
	 viewBox="0 0 128 128" style="enable-background:new 0 0 128 128;" xml:space="preserve">
<style type="text/css">
	.st0{fill:#4C4C4C;}
	.st1{fill:#EAE9E9;}
</style>
<g>
	<path class="st0" d="M124.5,0H33.4C31.5,0,30,1.6,30,3.5v21.9c7.8,0,15.7,0,23.5,0c15.9,0,31.9,0,47.8,0c1.1,0,1.3,0.2,1.3,1.3
		c0,23.8,0,47.5,0,71.3h21.9c1.9,0,3.5-1.6,3.5-3.5V3.5C128,1.6,126.4,0,124.5,0z"/>
</g>
<path class="st1" d="M49.1,29.8c15.9,0,31.9,0,47.8,0c1.1,0,1.3,0.2,1.3,1.3c0,31.9,0,63.7,0,95.6c0,1.1-0.2,1.3-1.3,1.3
	c-26.1,0-52.2,0-78.3,0c-1.7,0-3-0.6-4.1-2c-1.1-1.4-2.6-2.6-3.9-3.8c-3.3-3.1-6.3-6.4-9.7-9.3c-0.7-0.6-1-1.4-1-2.4
	C0,84,0,57.5,0,31.1c0-1.1,0.2-1.3,1.3-1.3C17.3,29.8,33.2,29.8,49.1,29.8z"/>
<path class="st1" d="M79,0c15.9,0,31.8,0,47.7,0c1.1,0,1.3,0.3,1.3,1.3c0,31.8,0,63.6,0,95.4c0,1.1-0.3,1.3-1.3,1.3
	c-7.7-0.1-15.4,0-23.1,0c-1,0-1.2-0.3-1.2-1.2c0-2.9,0-2.9,2.9-2.9c5.8,0,11.6,0,17.4,0c0.9,0,1.1-0.2,1.1-1.1c0-29.2,0-58.3,0-87.5
	c0-0.9-0.2-1.2-1.1-1.1c-2.1,0.1-4.1,0.1-6.2,0c-1,0-1.3,0.3-1.3,1.3c0,11.9,0,23.9,0.1,35.8c0,1.3-0.3,1.5-1.5,1.5
	c-3.4-0.1-6.9-0.1-10.3,0c-0.8,0-1.2-0.1-1.1-1c0.1-1.1-0.5-2.6,0.3-3.2c0.6-0.5,2-0.2,3.1-0.2c1.3,0,2.7-0.1,4,0
	c1,0.1,1.2-0.2,1.2-1.2c0-8.9,0-17.7,0-26.6c0-1.7-0.1-3.4,0-5.2c0.1-1-0.3-1.2-1.2-1.2c-18.4,0-36.8,0-55.2,0c-2.2,0-4.3,0-6.5,0
	c-0.9,0-1,0.3-1,1.1c0,6.4,0,12.7,0,19.1c0,0.9-0.1,1.4-1.2,1.3c-1-0.1-2.3,0.4-3-0.2c-0.6-0.6-0.2-2-0.2-3c0-5.7,0-11.5,0-17.2
	c0-0.9-0.2-1.2-1.1-1.1c-2.1,0.1-4.2,0.1-6.3,0c-0.9,0-1.1,0.3-1.1,1.2c0,6.4,0,12.7,0,19.1c0,0.9-0.1,1.3-1.2,1.2c-3-0.1-3,0-3-3
	c0-7.1,0-14.3,0-21.4c0-1,0.2-1.2,1.2-1.2C47.1,0,63.1,0,79,0z"/>
<path class="st0" d="M93.9,78.9c0,14.5,0,28.9,0,43.4c0,1-0.2,1.3-1.2,1.3c-6.2-0.1-12.5-0.1-18.7,0c-1,0-1.3-0.2-1.3-1.3
	c0-10.6,0-21.1,0.1-31.7c0-1-0.3-1.3-1.3-1.3c-14.9,0-29.7,0-44.6,0c-1,0-1.2,0.3-1.2,1.3c0,10.5,0,20.9,0.1,31.4
	c0,1.3-0.4,1.6-1.6,1.5c-1-0.1-2-0.1-3,0c-2.2,0.3-3.8-0.7-5.3-2.2c-1.4-1.4-2.7-3-4.2-4.3c-1.9-1.8-3.7-3.8-5.7-5.5
	c-1.2-1-1.5-2.2-1.5-3.7c0-24.1,0-48.2,0-72.2c0-1.1,0.2-1.6,1.4-1.5c1.9,0.1,3.9,0.1,5.8,0c1.1-0.1,1.3,0.2,1.3,1.3
	c0,11.8,0,23.7-0.1,35.5c0,1.2,0.3,1.5,1.5,1.5c23.2,0,46.3,0,69.5,0c1.2,0,1.5-0.3,1.5-1.5c0-11.8,0-23.7-0.1-35.5
	c0-1.1,0.3-1.4,1.4-1.3c1.9,0.1,3.8,0.1,5.7,0c1.2-0.1,1.6,0.2,1.6,1.5C93.8,50,93.9,64.5,93.9,78.9z"/>
<path class="st0" d="M49.3,34.1c10.2,0,20.4,0,30.6,0c1.1,0,1.3,0.3,1.3,1.3c0,10.5,0,21,0,31.5c0,1.1-0.3,1.3-1.3,1.3
	c-20.5,0-41,0-61.5,0c-1.1,0-1.3-0.3-1.3-1.3c0-10.5,0-21,0-31.5c0-1.1,0.3-1.3,1.3-1.3C28.7,34.2,39,34.1,49.3,34.1z"/>
<path class="st0" d="M49.1,93.9c6,0,12,0,18,0c1,0,1.2,0.2,1.2,1.2c0,9.1,0,18.3,0,27.4c0,1-0.2,1.2-1.2,1.2c-12,0-23.9,0-35.9,0
	c-1,0-1.2-0.2-1.2-1.2c0-9.1,0-18.3,0-27.4c0-1,0.2-1.2,1.2-1.2C37.2,93.9,43.2,93.9,49.1,93.9z"/>
<path class="st1" d="M38.5,108.7c0-1.8,0-3.7,0-5.5c0-0.6,0.2-0.8,0.8-0.8c3.4-0.1,3.4-0.2,3.4,3.1c0,2.9,0,5.8,0,8.6
	c0,0.7-0.2,0.9-0.9,0.9c-3.2,0-3.2,0.1-3.2-3.1C38.5,110.9,38.5,109.8,38.5,108.7z"/>
<g>
	<path class="st0" d="M70.7,25.2c10.2,0,20.4,0,30.6,0c1.1,0,1.3,0.3,1.3,1.3c0,4.1,0,8.2,0,12.3h8.3V4.3H47.1v20.9
		C55,25.3,62.8,25.2,70.7,25.2z"/>
</g>
</svg>
