<?xml version="1.0" encoding="utf-8"?>
<!-- Generator: Adobe Illustrator 28.2.0, SVG Export Plug-In . SVG Version: 6.00 Build 0)  -->
<svg version="1.1" id="Capa_1" xmlns="http://www.w3.org/2000/svg" xmlns:xlink="http://www.w3.org/1999/xlink" x="0px" y="0px"
	 viewBox="0 0 128 128" style="enable-background:new 0 0 128 128;" xml:space="preserve">
<style type="text/css">
	.st0{fill:#922E9B;}
	.st1{fill:#FFFFFF;}
	.st2{fill:#D492D8;}
</style>
<g>
	<path class="st0" d="M0.3,51.6c0-0.4,0-0.9,0-1.4c0-2.5,0-5.1,0-7.6c0-0.4,0-0.9,0-1.4c0-4.7,0-9.4,0-14.1c0-5.9,0-11.7,0.1-17.6
		c0-2.5,0.1-5,0-7.4C0.2,0.7,0.6,0.3,2,0.3c9,0.1,18,0,27.1,0c32.3,0,64.5,0,96.8,0c2.1,0,2.1,0,2.1,2.1c0,41.3,0,82.5,0,123.7
		c0,1.8,0,1.8-1.9,1.8c-34.3,0-68.6,0-102.9,0.1c-2.3,0-4-0.6-5.7-2.4c-5.2-5.4-10.7-10.8-16-16c-0.8-0.8-1.3-1.8-1.3-3
		c0-2.1,0-4.2-0.1-6.4c0-3.9,0-7.8,0-11.6c0-0.6,0-1.3,0-1.9c0-2.5,0-4.9,0-7.4c0-0.5,0-1,0-1.7c0-2.5,0-4.9,0-7.4c0-0.5,0-1,0-1.7
		c0-2.4,0-4.9,0-7.3c0-0.6,0-1.3,0-2C0.3,56.8,0.3,54.3,0.3,51.6z"/>
	<path class="st1" d="M23.2,55.2c-0.1-1-0.2-2-0.2-3c0-15,0-30,0-44.9c0-1.8,0.3-2.4,1.7-2.4c26,0.1,52,0.1,77.8,0.1
		c2.5,0,2.5,0,2.5,3.5c0,14.9,0,29.9,0,44.7c0,0.5,0,1.2-0.1,1.7c-0.2,0.6-0.6,0.6-1,0.6c-26.3-0.1-52.6,0-78.9-0.1
		C24.4,55.3,23.8,55.4,23.2,55.2z"/>
	<path class="st1" d="M91.2,87.6c0,3.2,0.1,6.6,0.1,9.8c0.1,8.2,0.1,16.3,0.2,24.5c0,1.2-0.3,1.5-1.5,1.5c-17.3,0-34.6,0-52,0
		c-1.3,0-1.5-0.4-1.5-1.6c0.1-11.3,0.1-22.6,0.1-33.8c0.2-0.6,0.5-0.7,1.2-0.7c16.1,0.2,32.2,0,48.3,0.1c1.2,0,2.3-0.2,3.6-0.1
		C90.3,87.2,90.8,87.1,91.2,87.6z"/>
	<g>
		<path class="st2" d="M9.7,51c1.7,0,3.4,0,4.9,0C13.1,51,11.4,51,9.7,51z"/>
		<path class="st2" d="M9.1,60.3c-0.8,0-1.7,0-2.5,0c0.1,0,0.3,0,0.4,0C7.7,60.3,8.5,60.3,9.1,60.3z"/>
		<path class="st2" d="M6.9,78.3c-0.1,0-0.1,0-0.2,0c0.1,0,0.2,0,0.3,0c32.5,0,64.9,0,97.4,0c5.6,0,11.2,0,16.8,0c0.1,0,0.2,0,0.3,0
			h-0.1C83.3,78.3,45,78.3,6.9,78.3z"/>
		<path class="st2" d="M79.5,69.3c-24.2,0-48.5,0-72.7,0H6.7c0.1,0,0.3,0,0.4,0C31.2,69.3,55.3,69.3,79.5,69.3z"/>
		<path class="st2" d="M123.4,102.5c0-31.3,0-62.5,0-93.9c0-2.7-0.3-4-1.4-3.9c-3.7,0.1-7.4,0.1-11.1,0c-0.9,0-1.3,0.9-1.3,3.7
			c0,11,0,21.9,0,32.9c0,0.1,0,0.2,0,0.3c0,2.9,0,6,0,8.9c0,0,0,0.1-0.1,0.1c0,2.5,0,5.1-0.1,7.6c0,0.1,0.1,0.1,0.1,0.1
			c0,0.1,0,0.2,0,0.4c-4.8,0.1-9.6,0.2-14.6,0.2c-25.2,0-50.5,0-75.7-0.1c-0.2,0-0.4,0-0.6,0c0.1-16.6,0-33,0-49.5
			c0-3.5-0.4-4.7-1.7-4.7c-3.7,0.1-7.2,0.1-10.9,0c-1,0-1.3,0.9-1.3,3.6c0,10.9,0,21.7,0,32.6c-0.1,0.1-0.1,0.1-0.2,0.2
			c0,2.7,0,5.4,0,8.3c0.1,0.1,0.1,0.1,0.2,0.1c0,0.2,0,0.3,0,0.5c-0.1,0-0.1,0.1-0.2,0.1c0,2.8,0,5.7,0,8.5c0.1,0,0.1,0.1,0.2,0.1
			c0,0.1,0,0.2,0,0.3c-0.1,0-0.1,0.1-0.2,0.1c0,2.8,0,5.7,0,8.5c0.1,0.1,0.1,0.1,0.2,0.1c0,0.1,0,0.2,0,0.3c-0.1,0-0.1,0.1-0.2,0.1
			c0,2.8,0,5.7,0,8.5c0.1,0.1,0.1,0.1,0.2,0.1c0,0.2,0,0.3,0,0.5c-0.1,0-0.1,0.1-0.2,0.1c0,2.8,0,5.7,0,8.5c0.1,0,0.1,0.1,0.2,0.1
			c0,1.3,0,2.6,0,3.9c0,4.9,0,9.8,0,14.8c0,1,0.3,1.9,1.2,2.6c5,4.9,10,10,15,15c0.6,0.6,1.4,0.9,2.3,0.9c2.6,0,5.2,0,7.9,0
			c0.8,0,1.2-0.2,1.2-1c0-11.4,0-22.8-0.1-34.3c0-0.1-0.1-0.2-0.1-0.2c0-2,0-4,0-6c0.1-0.5,0.6-0.6,1.9-0.6c18.6,0,37.3,0,56,0
			c1.6,0,3.1,0,4.6,0c0.8,0,1.3,0.3,1.2,1.2c0,1.2,0,2.3,0,3.4c0,0,0,0,0.1,0c0,0.2,0,0.4,0,0.6c0,0.1-0.1,0.2-0.1,0.4
			c0,11.3,0,22.6,0,33.8c0,1.2,0.3,1.5,1.5,1.5c8.2,0,16.2-0.1,24.4,0c1.4,0,1.6-0.4,1.6-1.6c-0.1-4.9-0.1-10-0.2-14.9
			C123.4,104.8,123.4,103.7,123.4,102.5z"/>
	</g>
	<path class="st0" d="M50.4,105.2c0,2.6,0,5.2,0,7.9c0,0.8-0.2,1.3-1.2,1.3c-3.5,0.1-3.5,0.1-3.5-3.4c0-4.5,0-9,0-13.5
		c0-1,0.3-1.4,1.4-1.4c3.2,0,3.2,0,3.2,3.2C50.4,101.3,50.4,103.3,50.4,105.2z"/>
</g>
</svg>
