<?xml version="1.0" encoding="utf-8"?>
<!-- Generator: Adobe Illustrator 28.2.0, SVG Export Plug-In . SVG Version: 6.00 Build 0)  -->
<svg version="1.1" id="Capa_1" xmlns="http://www.w3.org/2000/svg" xmlns:xlink="http://www.w3.org/1999/xlink" x="0px" y="0px"
	 viewBox="0 0 128 128" style="enable-background:new 0 0 128 128;" xml:space="preserve">
<style type="text/css">
	.st0{fill:#5AACFF;}
	.st1{fill:#777777;}
</style>
<g>
	<path class="st0" d="M125.9,0C93.6,0,61.3,0,29,0C19.8,0,10.8,0.1,1.8,0C0.4,0,0,0.4,0.2,1.9c0.1,2.4,0,4.9,0,7.4
		C0.1,15.2,0.1,21.1,0.1,27c0,4.7,0,9.4,0,14.2c0,0.4,0,0.9,0,1.4c0,2.5,0,5.1,0,7.7c0,0.4,0,0.9,0,1.4c0,2.5,0,5.1-0.1,7.3
		c0,0.7,0,1.4,0,2c0,2.4,0,4.9,0,7.3c0,0.6,0,1.2,0,1.7c0,2.5,0,4.9,0,7.4C0,78,0,78.5,0,79c0,2.5,0,4.9,0,7.4c0,0.6,0,1.3,0,1.9
		c0,3.9,0,7.8,0,11.6c0.1,2.2,0.1,4.3,0.1,6.4c0,1.3,0.4,2.2,1.3,3c5.4,5.2,10.8,10.6,16.1,16.1c1.7,1.8,3.4,2.4,5.7,2.4
		c34.3-0.1,68.7-0.1,103-0.1c1.9,0,1.9,0,1.9-1.8c0-41.2,0-82.6,0-123.9C128,0,128,0,125.9,0z M24.9,9.6c0-1.8,0.3-2.3,1.6-2.3
		c24.8,0,49.6,0,74.3,0.1c2.4,0,2.4,0,2.4,3.3c0,14.3,0,28.5,0,42.9c0,0.5,0,1.1-0.1,1.6c-0.2,0.5-0.6,0.5-1,0.5
		c-25.1-0.1-50.2,0-75.3,0c-0.6-0.1-1.2,0.1-1.7-0.2c-0.1-1-0.2-1.9-0.2-2.9C24.9,38.3,24.9,23.9,24.9,9.6z M88.8,120.6
		c-16.5,0-33,0-49.6,0c-1.2,0-1.4-0.4-1.4-1.5c0.1-10.8,0.1-21.6,0.1-32.3c0.2-0.6,0.5-0.7,1.1-0.7c15.4,0.2,30.7,0,46.1,0.1
		c1.1,0,2.2-0.2,3.4-0.1c0.5,0,1-0.1,1.4,0.3c0,3.1,0.1,6.3,0.1,9.4c0.1,7.8,0.1,15.6,0.2,23.4C90.2,120.3,89.9,120.6,88.8,120.6z
		 M120.5,92c0.1,8.9,0.1,17.9,0.2,26.8c0,1.3-0.2,1.9-1.5,1.8c-7.8-0.1-15.5-0.1-23.3,0c-1.1,0-1.4-0.4-1.4-1.7
		c0-12.5,0-24.8,0-37.2c-20.3,0-40.6,0-60.9,0c0,6.2,0.1,12.4,0.1,18.6c0,0.6,0,1-0.2,1.3c0,6,0,11.9,0.1,17.9c0,0.9-0.3,1.1-1.1,1
		c-2.5,0-5,0-7.5,0c-0.9,0-1.5-0.3-2.2-0.9c-4.7-4.8-9.5-9.5-14.3-14.3c-0.7-0.7-1.1-1.5-1.1-2.5c0-5.4,0-10.9,0-16.3
		c0,0,0.1,0,0.1-0.1c0-1.9,0-3.9,0-5.8c0-5.6,0-11.1,0-16.7c0-18.2,0-36.3-0.1-54.5c0-1.5,0.2-2.1,1.2-2.1c3.5,0.2,6.9,0.2,10.4,0
		c1.2,0,1.6,0.6,1.6,2.7c0,11.4,0.1,23.1-0.1,34.5c-0.1,5.4,0,10.8-0.1,16.2c0.3,0,0.7,0,1,0c24.1,0.2,48.2,0.2,72.3,0.2
		c4.6,0,9.3-0.3,13.9-0.5c0-1.1,0.1-2.2-0.1-3.5c0-15.8,0-31.6,0-47.6c0-1.4,0.3-2.1,1.2-2.1c3.5,0,7.1,0,10.6,0
		c1,0,1.3,0.6,1.3,2.2c0,17.4,0,34.6,0,52c0,0.5,0.1,1.1-0.1,1.6c0.3,5.9,0.3,11.8-0.1,17.9C120.4,84.6,120.4,88.3,120.5,92z"/>
	<path class="st1" d="M47.8,94.5c-1,0-1.3,0.3-1.3,1.3c0,4.3,0,8.6,0,12.9c0,3.3,0,3.3,3.3,3.2c0.9,0,1.1-0.4,1.1-1.2
		c0-2.5,0-5,0-7.5c0-1.9,0-3.8,0-5.6C50.9,94.5,50.9,94.5,47.8,94.5z"/>
</g>
</svg>
