<?xml version="1.0" encoding="utf-8"?>
<!-- Generator: Adobe Illustrator 26.3.1, SVG Export Plug-In . SVG Version: 6.00 Build 0)  -->
<svg version="1.1" id="Capa_1" xmlns="http://www.w3.org/2000/svg" xmlns:xlink="http://www.w3.org/1999/xlink" x="0px" y="0px"
	 viewBox="0 0 128 128" style="enable-background:new 0 0 128 128;" xml:space="preserve">
<style type="text/css">
	.st0{fill:#EAE9E9;}
	.st1{fill:#4C4C4C;}
	.st2{fill:#777777;}
</style>
<g>
	<path class="st0" d="M3.1,52.1c0-0.4,0-0.9,0-1.3c0-2.4,0-4.9,0-7.3c0-0.4,0-0.9,0-1.3c0-4.5,0-9,0-13.5c0-5.6,0-11.2,0.1-16.8
		c0-2.4,0.1-4.8,0-7.1C3,3.4,3.4,3,4.7,3c8.6,0.1,17.2,0,25.9,0C61.4,3,92.2,3,123,3c2,0,2,0,2,2c0,39.4,0,78.8,0,118.1
		c0,1.7,0,1.7-1.8,1.7c-32.7,0-65.5,0-98.2,0.1c-2.2,0-3.8-0.6-5.4-2.3c-5-5.2-10.2-10.3-15.3-15.3c-0.8-0.8-1.2-1.7-1.2-2.9
		c0-2,0-4-0.1-6.1c0-3.7,0-7.4,0-11.1c0-0.6,0-1.2,0-1.8c0-2.4,0-4.7,0-7.1c0-0.5,0-1,0-1.6c0-2.4,0-4.7,0-7.1c0-0.5,0-1,0-1.6
		c0-2.3,0-4.7,0-7c0-0.6,0-1.2,0-1.9C3.1,57,3.1,54.5,3.1,52.1z"/>
	<path class="st1" d="M25.1,55.5c-0.1-1-0.2-1.9-0.2-2.9c0-14.3,0-28.7,0-43c0-1.8,0.3-2.3,1.6-2.3c24.8,0,49.6,0,74.3,0.1
		c2.4,0,2.4,0,2.4,3.3c0,14.3,0,28.5,0,42.9c0,0.5,0,1.1-0.1,1.6c-0.2,0.5-0.6,0.5-1,0.5c-25.1-0.1-50.2,0-75.3,0
		C26.2,55.6,25.6,55.8,25.1,55.5z"/>
	<path class="st1" d="M89.9,86.4c0,3.1,0.1,6.3,0.1,9.4c0.1,7.8,0.1,15.6,0.2,23.4c0,1.1-0.3,1.4-1.4,1.4c-16.5,0-33,0-49.6,0
		c-1.2,0-1.4-0.4-1.4-1.5c0.1-10.8,0.1-21.6,0.1-32.3c0.2-0.6,0.5-0.7,1.1-0.7c15.4,0.2,30.7,0,46.1,0.1c1.1,0,2.2-0.2,3.4-0.1
		C89,86.1,89.5,86,89.9,86.4z"/>
	<path class="st1" d="M7.5,80.6c0-6.5,0-13,0-19.5c0.7-1.2,1.4-0.2,2.1-0.2c3.9-0.2,7.9-0.2,11.8-0.2c24.1,0.2,48.2,0.2,72.3,0.2
		c8.2,0,16.4-1,24.6-0.7c0.7,0,1.5-0.5,2.1,1c0.4,6.5,0.4,13,0,19.8c-0.5,1-1.1,0.7-1.7,0.7c-36.5,0-73,0-109.4,0
		C8.7,81.3,8,81.6,7.5,80.6z"/>
	<path class="st1" d="M120.4,80.1c0,3.9,0,7.9,0.1,11.9c0.1,8.9,0.1,17.9,0.2,26.8c0,1.3-0.2,1.9-1.5,1.8c-7.8-0.1-15.5-0.1-23.3,0
		c-1.1,0-1.4-0.4-1.4-1.7c0-12.9,0-25.7,0-38.5c0.1-1.4,1-0.5,1.5-0.7c3.4,0,6.8,0,10.2,0c4.2,0,8.3,0,12.5,0
		C119.2,79.6,119.9,79.5,120.4,80.1z"/>
	<path class="st1" d="M33.5,86.8c0,10.9,0,21.8,0.1,32.7c0,0.9-0.3,1.1-1.1,1c-2.5,0-5,0-7.5,0c-0.9,0-1.5-0.3-2.2-0.9
		c-4.7-4.8-9.5-9.5-14.3-14.3c-0.7-0.7-1.1-1.5-1.1-2.5c0-5.4,0-10.9,0-16.3c0.3-0.3,0.8-0.4,1.2-0.4c6,0,12.1,0,18.1,0
		c1.7,0,3.5,0,5.2,0C32.6,86.2,33.2,86.2,33.5,86.8z"/>
	<path class="st1" d="M107.5,56.9c0-15.8,0-31.6,0-47.6c0-1.4,0.3-2.1,1.2-2.1c3.5,0,7.1,0,10.6,0c1,0,1.3,0.6,1.3,2.2
		c0,17.4,0,34.6,0,52c0,0.6,0.1,1.3-0.2,1.9c-0.5,0.5-1,0.5-1.5,0.5c-3.2,0-6.3,0-9.5,0c-1.7,0-1.7-0.2-1.8-2.7
		C107.6,59.8,107.7,58.4,107.5,56.9z"/>
	<path class="st1" d="M7.5,63.9c0-18.2,0-36.3-0.1-54.5c0-1.5,0.2-2.1,1.2-2.1c3.5,0.2,6.9,0.2,10.4,0c1.2,0,1.6,0.6,1.6,2.7
		c0,11.4,0.1,23.1-0.1,34.5c-0.1,6.4,0,12.9-0.2,19.3c-0.4,0.6-0.9,0.6-1.4,0.6c-3.4,0-6.8,0-10.2,0C8.4,64.5,7.9,64.5,7.5,63.9z"/>
	<path class="st2" d="M50.9,103.2c0,2.5,0,5,0,7.5c0,0.8-0.2,1.2-1.1,1.2c-3.3,0.1-3.3,0.1-3.3-3.2c0-4.3,0-8.6,0-12.9
		c0-1,0.3-1.3,1.3-1.3c3.1,0,3.1,0,3.1,3.1C50.9,99.4,50.9,101.3,50.9,103.2z"/>
	<path class="st1" d="M33.4,61.6c0,3.9,0,7.9,0.1,11.9c0.1,8.9,0.1,17.9,0.2,26.8c0,1.3-0.2,1.9-1.5,1.8c-7.8-0.1-15.5-0.1-23.3,0
		c-1.1,0-1.4-0.4-1.4-1.7c0-12.9,0-25.7,0-38.5c0.1-1.4,1-0.5,1.5-0.7c3.4,0,6.8,0,10.2,0c4.2,0,8.3,0,12.5,0
		C32.2,61.1,32.9,61,33.4,61.6z"/>
</g>
</svg>
