<?xml version="1.0" encoding="utf-8"?>
<!-- Generator: Adobe Illustrator 26.3.1, SVG Export Plug-In . SVG Version: 6.00 Build 0)  -->
<svg version="1.1" id="Capa_1" xmlns="http://www.w3.org/2000/svg" xmlns:xlink="http://www.w3.org/1999/xlink" x="0px" y="0px"
	 viewBox="0 0 128 128" style="enable-background:new 0 0 128 128;" xml:space="preserve">
<style type="text/css">
	.st0{fill:#922E9B;}
	.st1{fill:#FFFFFF;}
	.st2{fill:#D492D8;}
</style>
<g>
	<path class="st0" d="M3.1,52.3c0-0.4,0-0.9,0-1.3c0-2.4,0-4.9,0-7.3c0-0.4,0-0.9,0-1.3c0-4.5,0-9,0-13.5c0-5.6,0-11.2,0.1-16.8
		c0-2.4,0.1-4.8,0-7.1C3,3.7,3.4,3.3,4.7,3.3c8.6,0.1,17.2,0,25.9,0c30.8,0,61.6,0,92.4,0c2,0,2,0,2,2c0,39.4,0,78.8,0,118.1
		c0,1.7,0,1.7-1.8,1.7c-32.7,0-65.5,0-98.2,0.1c-2.2,0-3.8-0.6-5.4-2.3c-5-5.2-10.2-10.3-15.3-15.3c-0.8-0.8-1.2-1.7-1.2-2.9
		c0-2,0-4-0.1-6.1c0-3.7,0-7.4,0-11.1c0-0.6,0-1.2,0-1.8c0-2.4,0-4.7,0-7.1c0-0.5,0-1,0-1.6c0-2.4,0-4.7,0-7.1c0-0.5,0-1,0-1.6
		c0-2.3,0-4.7,0-7c0-0.6,0-1.2,0-1.9C3.1,57.2,3.1,54.8,3.1,52.3z"/>
	<path class="st1" d="M25,55.7c-0.1-1-0.2-1.9-0.2-2.9c0-14.3,0-28.6,0-42.9c0-1.7,0.3-2.3,1.6-2.3C51.2,7.7,76,7.7,100.7,7.7
		c2.4,0,2.4,0,2.4,3.3c0,14.2,0,28.5,0,42.7c0,0.5,0,1.1-0.1,1.6c-0.2,0.6-0.6,0.6-1,0.6c-25.1-0.1-50.2,0-75.3-0.1
		C26.1,55.8,25.5,55.9,25,55.7z"/>
	<path class="st1" d="M89.9,86.6c0,3.1,0.1,6.3,0.1,9.4c0.1,7.8,0.1,15.6,0.2,23.4c0,1.1-0.3,1.4-1.4,1.4c-16.5,0-33,0-49.6,0
		c-1.2,0-1.4-0.4-1.4-1.5c0.1-10.8,0.1-21.6,0.1-32.3c0.2-0.6,0.5-0.7,1.1-0.7c15.4,0.2,30.7,0,46.1,0.1c1.1,0,2.2-0.2,3.4-0.1
		C89,86.3,89.5,86.2,89.9,86.6z"/>
	<g>
		<path class="st2" d="M12.1,51.7c1.6,0,3.2,0,4.7,0C15.3,51.7,13.7,51.7,12.1,51.7z"/>
		<path class="st2" d="M11.5,60.6c-0.8,0-1.6,0-2.4,0c0.1,0,0.3,0,0.4,0C10.2,60.6,10.9,60.6,11.5,60.6z"/>
		<path class="st2" d="M9.4,77.8c-0.1,0-0.1,0-0.2,0c0.1,0,0.2,0,0.3,0c31,0,62,0,93,0c5.3,0,10.7,0,16,0c0.1,0,0.2,0,0.3,0
			c0,0-0.1,0-0.1,0C82.3,77.8,45.8,77.8,9.4,77.8z"/>
		<path class="st2" d="M78.7,69.2c-23.1,0-46.3,0-69.4,0c0,0-0.1,0-0.1,0c0.1,0,0.3,0,0.4,0C32.6,69.2,55.6,69.2,78.7,69.2z"/>
		<path class="st2" d="M120.6,100.9c0-29.9,0-59.7,0-89.6c0-2.6-0.3-3.8-1.3-3.7c-3.5,0.1-7.1,0.1-10.6,0c-0.9,0-1.2,0.9-1.2,3.5
			c0,10.5,0,20.9,0,31.4c0,0.1,0,0.2,0,0.3c0,2.8,0,5.7,0,8.5c0,0,0,0.1-0.1,0.1c0,2.4,0,4.9-0.1,7.3c0,0.1,0.1,0.1,0.1,0.1
			c0,0.1,0,0.2,0,0.4c-4.6,0.1-9.2,0.2-13.9,0.2c-24.1,0-48.2,0-72.3-0.1c-0.2,0-0.4,0-0.6,0c0.1-15.8,0-31.5,0-47.3
			c0-3.3-0.4-4.5-1.6-4.5c-3.5,0.1-6.9,0.1-10.4,0c-1,0-1.2,0.9-1.2,3.4c0,10.4,0,20.7,0,31.1c-0.1,0.1-0.1,0.1-0.2,0.2
			c0,2.6,0,5.2,0,7.9c0.1,0.1,0.1,0.1,0.2,0.1c0,0.2,0,0.3,0,0.5c-0.1,0-0.1,0.1-0.2,0.1c0,2.7,0,5.4,0,8.1c0.1,0,0.1,0.1,0.2,0.1
			c0,0.1,0,0.2,0,0.3c-0.1,0-0.1,0.1-0.2,0.1c0,2.7,0,5.4,0,8.1c0.1,0.1,0.1,0.1,0.2,0.1c0,0.1,0,0.2,0,0.3c-0.1,0-0.1,0.1-0.2,0.1
			c0,2.7,0,5.4,0,8.1c0.1,0.1,0.1,0.1,0.2,0.1c0,0.2,0,0.3,0,0.5c-0.1,0-0.1,0.1-0.2,0.1c0,2.7,0,5.4,0,8.1c0.1,0,0.1,0.1,0.2,0.1
			c0,1.2,0,2.5,0,3.7c0,4.7,0,9.4,0,14.1c0,1,0.3,1.8,1.1,2.5c4.8,4.7,9.5,9.5,14.3,14.3c0.6,0.6,1.3,0.9,2.2,0.9c2.5,0,5,0,7.5,0
			c0.8,0,1.1-0.2,1.1-1c0-10.9,0-21.8-0.1-32.7c0-0.1-0.1-0.2-0.1-0.2c0-1.9,0-3.8,0-5.7c0.1-0.5,0.6-0.6,1.8-0.6
			c17.8,0,35.6,0,53.5,0c1.5,0,3,0,4.4,0c0.8,0,1.2,0.3,1.1,1.1c0,1.1,0,2.2,0,3.2c0,0,0,0,0.1,0c0,0.2,0,0.4,0,0.6
			c0,0.1-0.1,0.2-0.1,0.4c0,10.8,0,21.6,0,32.3c0,1.1,0.3,1.4,1.4,1.4c7.8,0,15.5-0.1,23.3,0c1.3,0,1.5-0.4,1.5-1.5
			c-0.1-4.7-0.1-9.5-0.2-14.2C120.6,103.1,120.6,102,120.6,100.9z"/>
	</g>
	<path class="st0" d="M50.9,103.4c0,2.5,0,5,0,7.5c0,0.8-0.2,1.2-1.1,1.2c-3.3,0.1-3.3,0.1-3.3-3.2c0-4.3,0-8.6,0-12.9
		c0-1,0.3-1.3,1.3-1.3c3.1,0,3.1,0,3.1,3.1C50.9,99.7,50.9,101.6,50.9,103.4z"/>
</g>
</svg>
