<?xml version="1.0" encoding="utf-8"?>
<!-- Generator: Adobe Illustrator 28.2.0, SVG Export Plug-In . SVG Version: 6.00 Build 0)  -->
<svg version="1.1" id="Capa_1" xmlns="http://www.w3.org/2000/svg" xmlns:xlink="http://www.w3.org/1999/xlink" x="0px" y="0px"
	 viewBox="0 0 128 128" style="enable-background:new 0 0 128 128;" xml:space="preserve">
<style type="text/css">
	.st0{fill:#0861AD;}
	.st1{fill:#90CAEE;}
</style>
<g>
	<path class="st0" d="M27.3,128c-8.6,0-17.3,0-25.9,0c-1.2,0-1.4-0.3-1.4-1.4c0-17.4,0-34.8,0-52.2c0-1,0.2-1.4,1.3-1.4
		c17.4,0,34.9,0,52.3,0c1.1,0,1.3,0.3,1.3,1.4c0,17.4,0,34.8,0,52.2c0,1.1-0.2,1.4-1.4,1.4C44.8,127.9,36.1,128,27.3,128z"/>
	<path class="st0" d="M100.5,128c-8.7,0-17.4,0-26.1,0c-1.2,0-1.4-0.3-1.4-1.4c0-17.4,0-34.8,0-52.2c0-1,0.2-1.4,1.3-1.4
		c17.4,0,34.9,0,52.3,0c1.1,0,1.3,0.3,1.3,1.4c0,17.4,0,34.8,0,52.2c0,1.1-0.2,1.4-1.4,1.4C117.9,127.9,109.2,128,100.5,128z"/>
	<path class="st0" d="M27.4,54.9c-8.7,0-17.4,0-26.1,0c-1.1,0-1.3-0.3-1.3-1.4C0,36.1,0,18.7,0,1.3C0,0.3,0.2,0,1.3,0
		c17.5,0,34.9,0,52.4,0c1,0,1.2,0.3,1.2,1.3c0,17.4,0,34.9,0,52.3c0,1-0.2,1.4-1.3,1.4C44.9,54.9,36.1,54.9,27.4,54.9z"/>
	<path class="st0" d="M100.5,54.9c-8.7,0-17.4,0-26.1,0c-1.2,0-1.4-0.3-1.4-1.4c0-17.4,0-34.8,0-52.2c0-1,0.2-1.4,1.3-1.4
		c17.4,0,34.9,0,52.3,0c1.1,0,1.3,0.3,1.3,1.4c0,17.4,0,34.8,0,52.2c0,1.1-0.2,1.4-1.4,1.4C117.9,54.9,109.2,54.9,100.5,54.9z"/>
	<path class="st1" d="M27.3,123.4c-7.1,0-14.1,0-21.2,0c-1.1,0-1.5-0.2-1.5-1.5c0.1-14.2,0-28.3,0-42.5C4.6,78.3,4.8,78,6,78
		c14.3,0,28.6,0,42.9,0c1.2,0,1.4,0.4,1.4,1.5c0,14.2,0,28.3,0,42.5c0,1.3-0.4,1.5-1.5,1.5C41.6,123.3,34.5,123.4,27.3,123.4z"/>
	<path class="st1" d="M100.6,78c7.1,0,14.2,0,21.3,0c1.1,0,1.5,0.2,1.5,1.4c0,14.2,0,28.4,0,42.6c0,1.2-0.4,1.4-1.5,1.4
		c-14.3,0-28.5,0-42.8,0c-1.1,0-1.5-0.2-1.5-1.4c0-14.2,0-28.4,0-42.6c0-1.2,0.4-1.4,1.5-1.4C86.3,78,93.5,78,100.6,78z"/>
	<path class="st1" d="M4.7,27.3c0-7.1,0-14.2,0-21.3c0-1,0.2-1.4,1.3-1.4c14.3,0,28.7,0,43,0c1,0,1.3,0.2,1.3,1.2
		c0,14.4,0,28.8,0,43.2c0,1.1-0.4,1.2-1.3,1.2c-14.3,0-28.7,0-43,0c-1.1,0-1.3-0.4-1.3-1.4C4.7,41.7,4.7,34.5,4.7,27.3z"/>
	<path class="st1" d="M123.4,27.5c0,7.1,0,14.2,0,21.3c0,1.1-0.2,1.5-1.5,1.5c-14.3-0.1-28.5-0.1-42.8,0c-1.3,0-1.5-0.4-1.5-1.5
		c0-14.2,0-28.4,0-42.6c0-1.1,0.2-1.5,1.5-1.5c14.3,0.1,28.5,0.1,42.8,0c1.3,0,1.5,0.4,1.5,1.5C123.3,13.2,123.4,20.4,123.4,27.5z"
		/>
</g>
</svg>
