<?xml version="1.0" encoding="utf-8"?>
<!-- Generator: Adobe Illustrator 28.2.0, SVG Export Plug-In . SVG Version: 6.00 Build 0)  -->
<svg version="1.1" id="Capa_1" xmlns="http://www.w3.org/2000/svg" xmlns:xlink="http://www.w3.org/1999/xlink" x="0px" y="0px"
	 viewBox="0 0 2068 2048" style="enable-background:new 0 0 2068 2048;" xml:space="preserve">
<style type="text/css">
	.st0{fill:#4CFFFF;}
	.st1{fill:#DFDFDF;}
</style>
<path class="st0" d="M330,922l-211,211c-12.7,12.7-27.7,19-45,19s-32.3-6.3-45-19s-19-27.7-19-45s6.3-32.3,19-45l256-256
	c12.7-12.7,27.7-19,45-19s32.3,6.3,45,19l256,256c12.7,12.7,19,27.7,19,45s-6.3,32.3-19,45s-27.7,19-45,19s-32.3-6.3-45-19L330,922z
	"/>
<path class="st1" d="M842,1024c-17.3,0-32.3-6.3-45-19s-19-27.7-19-45s6.3-32.3,19-45s27.7-19,45-19h1152c17.3,0,32.3,6.3,45,19
	c12.7,12.7,19,27.7,19,45s-6.3,32.3-19,45c-12.7,12.7-27.7,19-45,19H842z"/>
</svg>
