<?xml version="1.0" encoding="utf-8"?>
<!-- Generator: Adobe Illustrator 26.3.1, SVG Export Plug-In . SVG Version: 6.00 Build 0)  -->
<svg version="1.1" id="Capa_1" xmlns="http://www.w3.org/2000/svg" xmlns:xlink="http://www.w3.org/1999/xlink" x="0px" y="0px"
	 viewBox="0 0 128 128" style="enable-background:new 0 0 128 128;" xml:space="preserve">
<style type="text/css">
	.st0{fill:#FFFFFF;}
	.st1{fill:#0F7FD4;}
	.st2{fill:#6680FE;}
	.st3{fill:#B0B0AF;}
	.st4{fill:#49B7ED;}
	.st5{fill:#D2CAE3;}
	.st6{fill:#379E4E;}
	.st7{fill:#F48C77;}
</style>
<g>
	<path class="st0" d="M25,42.7c0-10.7,0-21.3,0-32c0-5.8,4.8-10.7,10.7-10.7c20.1,0,40.1,0,60.2,0c0.6,0,1.1-0.2,1.6,0.2
		c0.1,0.6,0.1,1.2,0.1,1.8c0,6.5,0,13,0,19.6c0,1.8,0.1,1.9,1.9,1.9c6.5,0,13,0,19.6,0c0.7,0,1.2,0,1.8,0.1c0.4,0.4,0.2,0.9,0.2,1.3
		c0,30.8,0,61.6,0,92.4c0,5.6-4.8,10.5-10.5,10.5c-25,0-49.9,0-75,0c-5.7,0-10.5-4.8-10.5-10.7c0-2.7,0-5.4,0-8
		c0.7-0.7,1.6-0.4,2.4-0.4c18,0,36,0,54,0c5.4,0,10.9,0,16.3,0c5.8,0,9.5-3.8,9.5-9.7c0-10-0.2-20,0.1-29.9
		C107.3,63,103.1,59,96.9,59c-23.1,0.1-46.4,0.1-69.5,0.1c-0.9,0-1.8,0.2-2.6-0.3c-0.3-0.4-0.3-1-0.3-1.6c0-4.3,0-8.5,0-12.9
		C24.6,43.7,24.5,43.2,25,42.7z"/>
	<path class="st1" d="M24.9,58.6c24.1,0,48,0.1,72.1,0c5.8,0,10.1,4.4,10.1,10.2c-0.2,10.2,0,20.3,0,30.5c0,6.1-3.9,10-9.9,10
		c-23.5,0-47,0-70.4,0c-0.6,0-1.1,0-1.7,0c-2.1,0-4.3,0-6.5,0C10.3,109.4,4,103,4,94.6c0-13.9,0-27.8,0-41.8c0-0.2,0-0.6,0-0.8
		c0.7,0.1,0.7,0.7,0.8,1.1c1.2,3.3,3.8,5.2,7.2,5.2c3.8,0,7.5,0,11.2,0C23.6,58.3,24.3,58.2,24.9,58.6z"/>
	<path class="st2" d="M25.1,58.6c-4.4,0-8.8,0-13,0c-4.2,0-7.1-2.2-8.1-6.3c0-0.1-0.1-0.2-0.2-0.3c-0.2-5.9,3-9.3,9-9.3
		c4.2,0,8.2,0,12.3,0C25,48,25,53.4,25.1,58.6z"/>
	<path class="st3" d="M120.8,23.7c-0.4,0.4-0.9,0.2-1.3,0.2c-7,0-13.9,0-20.9,0c-1.1,0-1.5-0.3-1.5-1.5c0-7,0-13.9,0-20.9
		c0-0.4-0.2-1,0.2-1.3c0.2,0.2,0.4,0.3,0.7,0.6c7.4,7.4,14.8,14.8,22.2,22.2C120.4,23.2,120.6,23.5,120.8,23.7z"/>
	<path class="st4" d="M62.3,29.3c7.1,0,14,0,21.1,0c1.1,0,2,0.3,2.6,1.3c0.6,1,0.4,1.9-0.1,2.9c-0.6,0.9-1.6,1.1-2.6,1.1
		c-3.8,0-7.7,0-11.6,0c-10.1,0-20.2,0-30.3,0c-1.1,0-2.1-0.2-2.7-1.3c-0.6-1-0.4-1.9,0.1-2.9c0.7-0.9,1.6-1.1,2.7-1.1
		C48.5,29.3,55.4,29.3,62.3,29.3z"/>
	<path class="st5" d="M50.3,40c3.6,0,7,0,10.5,0c0.6,0,1,0.3,1.3,1.3s0.2,1.9,0,2.9c-0.2,0.9-0.8,1.1-1.3,1.1c-2,0-3.9,0-5.9,0
		c-5.1,0-10,0-15,0c-0.6,0-1.1-0.2-1.3-1.3c-0.2-1-0.2-1.9,0-2.9c0.3-0.9,0.8-1.1,1.3-1.1C43.5,40,46.8,40,50.3,40z"/>
	<path class="st6" d="M89.6,40c6.1,0,11.9,0,18,0c1,0,1.7,0.3,2.2,1.3c0.4,1,0.3,1.9-0.1,2.9c-0.4,0.9-1.3,1.1-2.2,1.1
		c-3.4,0-6.7,0-10.1,0c-8.5,0-17.1,0-25.5,0c-1,0-1.8-0.2-2.2-1.3c-0.4-1-0.3-1.9,0.1-2.9c0.6-0.9,1.3-1.1,2.2-1.1
		C77.9,40,83.8,40,89.6,40z"/>
	<path class="st7" d="M51.7,24c-3.5,0-7.1,0-10.5,0c-1.1,0-1.9-0.4-2.5-1.5c-0.6-1-0.3-1.9,0.2-2.8c0.4-0.8,1.2-1.1,2.1-1.1
		c7.1,0,14.3,0,21.3,0c1.6,0,2.7,1.2,2.7,2.7c0,1.5-1.2,2.6-2.8,2.6C58.7,24,55.1,24,51.7,24z"/>
	<g>
		<path class="st0" d="M44.5,79.6c0,3.6-0.9,6.4-2.8,8.6c-2,2.4-4.7,3.5-8.2,3.5c-0.6,0-1.5,0-2.7-0.1c-1.2-0.1-2-0.1-2.7-0.1
			c-0.7,0-0.9,0.2-0.9,0.8c0,0.7,0.1,1.7,0.2,3c0.1,1.3,0.2,2.4,0.2,3c0,0.3-0.1,0.4-0.4,0.4c-0.9,0-2.2,0-4-0.1
			c-1.8-0.1-3.1-0.1-4-0.1c-0.4,0-0.7-0.2-0.7-0.7c0-1.6,0-4,0.1-7.3s0.1-5.7,0.1-7.3c0-4.6-0.2-9.4-0.6-14.5v-0.3
			c0-0.2,0.2-0.4,0.7-0.4c1.1-0.1,3.7-0.2,7.5-0.2c2.2,0,4.5,0,6.6,0.1c3.5,0.1,6.3,1.2,8.4,3.3C43.4,73.5,44.5,76.3,44.5,79.6z
			 M35.7,80c0-3.4-1.7-5.2-4.9-5.2c-2.4,0-3.6,0.1-3.7,0.4C27,75.5,27,77.2,27,80.3c0,0.4,0,1.1,0,2c0,0.9,0,1.6,0,2
			c0,0.3,1.3,0.4,3.9,0.4C34.2,84.8,35.7,83.2,35.7,80z"/>
		<path class="st0" d="M73.8,79.6c0,3.6-0.9,6.4-2.8,8.6c-2,2.4-4.7,3.5-8.2,3.5c-0.6,0-1.5,0-2.7-0.1s-2-0.1-2.7-0.1
			c-0.7,0-0.9,0.2-0.9,0.8c0,0.7,0.1,1.7,0.2,3c0.1,1.3,0.2,2.4,0.2,3c0,0.3-0.1,0.4-0.4,0.4c-0.9,0-2.2,0-4-0.1
			c-1.8-0.1-3.1-0.1-4-0.1c-0.4,0-0.7-0.2-0.7-0.7c0-1.6,0-4,0.1-7.3c0.1-3.3,0.1-5.7,0.1-7.3c0-4.6-0.2-9.4-0.6-14.5v-0.3
			c0-0.2,0.2-0.4,0.7-0.4c1.1-0.1,3.7-0.2,7.5-0.2c2.2,0,4.5,0,6.6,0.1c3.5,0.1,6.3,1.2,8.4,3.3C72.7,73.5,73.8,76.3,73.8,79.6z
			 M65,80c0-3.4-1.7-5.2-4.9-5.2c-2.4,0-3.6,0.1-3.7,0.4c-0.1,0.2-0.1,1.9-0.1,5.1c0,0.4,0,1.1,0,2c0,0.9,0,1.6,0,2
			c0,0.3,1.3,0.4,3.9,0.4C63.5,84.8,65,83.2,65,80z"/>
		<path class="st0" d="M96.9,99c-1.2,0-2.9,0-4.9-0.1c-2.6-0.1-4.3-0.1-4.9-0.1l-6.5-0.1c-0.7,0-1.6,0-2.8-0.1
			c-0.4-0.1-0.7-0.3-0.7-0.7c0-1.6,0-3.9,0.1-7.2c0.1-3.3,0.1-5.6,0.1-7.2c0-1.7,0-4.3-0.1-7.6C77,72.6,77,70,77,68.3
			c0-0.3,0.2-0.4,0.7-0.4s1.1,0,1.9,0.1c0.8,0.1,1.6,0.1,1.9,0.1c0.4,0,1.2,0,2.1-0.1c0.9-0.1,1.7-0.1,2.1-0.1
			c0.2,0,0.3,0.1,0.3,0.4v0.3c-0.2,2.7-0.3,6.8-0.6,12.3v5.8c0,1.9,0,3.3,0,4.2c0,0.2,0,0.3,0,0.6c0,0.2,0.1,0.3,0.3,0.3
			c0,0,0.2,0,0.6,0c1.3,0,3.3-0.1,5.9-0.2c2.7-0.1,4.6-0.2,5.9-0.2c0.4,0,0.6,0.1,0.6,0.4c0,2.5-0.2,4.6-0.6,6.5
			c-0.1,0.3-0.2,0.6-0.4,0.7C97.7,99,97.5,99,96.9,99z"/>
	</g>
</g>
</svg>
